<?xml version="1.0" encoding="utf-8"?>
<!-- Generator: Adobe Illustrator 25.1.0, SVG Export Plug-In . SVG Version: 6.00 Build 0)  -->
<svg version="1.1" id="Illustration" xmlns="http://www.w3.org/2000/svg" xmlns:xlink="http://www.w3.org/1999/xlink" x="0px"
	 y="0px" viewBox="0 0 1600 900" style="enable-background:new 0 0 1600 900;" xml:space="preserve">
<style type="text/css">
	.st0{fill:url(#SVGID_1_);}
	.st1{fill:url(#SVGID_2_);}
	.st2{clip-path:url(#SVGID_4_);}
	.st3{fill:#E2FF7E;}
	.st4{fill:#C3DB35;}
	.st5{fill:#D6F45B;}
	.st6{fill:#F5FFCB;}
	.st7{fill:url(#SVGID_5_);}
	.st8{fill:#BECE24;}
	.st9{fill:url(#SVGID_6_);}
	.st10{fill:#CAE7EA;}
	.st11{fill:url(#SVGID_7_);}
	.st12{fill:url(#SVGID_8_);}
	.st13{fill:url(#SVGID_9_);}
	.st14{fill:url(#SVGID_10_);}
	.st15{fill:url(#SVGID_11_);}
	.st16{opacity:0.3;fill:#FFFFFF;}
	.st17{fill:#FFFFFF;}
	.st18{opacity:0.8;fill:#CBE55E;}
	.st19{opacity:0.6;fill:#CBE55E;}
	.st20{fill:#FF8A7A;}
	.st21{fill:url(#SVGID_12_);}
	.st22{fill:#FFBF81;}
	.st23{fill:#C10E4F;}
	.st24{fill:url(#SVGID_13_);}
	.st25{fill:url(#SVGID_14_);}
	.st26{fill:url(#SVGID_15_);}
	.st27{fill:url(#SVGID_16_);}
	.st28{fill:url(#SVGID_17_);}
	.st29{fill:#ED2E69;}
	.st30{fill:url(#SVGID_18_);}
	.st31{fill:url(#SVGID_19_);}
	.st32{fill:#0E1935;}
	.st33{fill:url(#SVGID_20_);}
	.st34{fill:url(#SVGID_21_);}
	.st35{fill:url(#SVGID_22_);}
	.st36{fill:#F7826B;}
	.st37{fill:url(#SVGID_23_);}
	.st38{fill:url(#SVGID_24_);}
	.st39{fill:url(#SVGID_25_);}
	.st40{fill:url(#SVGID_26_);}
	.st41{fill:url(#SVGID_27_);}
	.st42{fill:url(#SVGID_28_);}
	.st43{opacity:0.3;clip-path:url(#SVGID_30_);}
	.st44{fill:url(#SVGID_31_);}
	.st45{fill:#0891F9;}
	.st46{fill:url(#SVGID_32_);}
	.st47{fill:#FABFAD;}
	.st48{fill:url(#SVGID_33_);}
	.st49{fill:url(#SVGID_34_);}
	.st50{fill:url(#SVGID_35_);}
	.st51{fill:url(#SVGID_36_);}
	.st52{fill:url(#SVGID_37_);}
	.st53{fill:url(#SVGID_38_);}
	.st54{fill:#0D73B2;}
	.st55{fill:#7CD2FC;}
	.st56{fill:url(#SVGID_39_);}
	.st57{fill:url(#SVGID_40_);}
	.st58{fill:url(#SVGID_41_);}
	.st59{fill:url(#SVGID_42_);}
	.st60{fill:#2B3E60;}
	.st61{fill:url(#SVGID_43_);}
	.st62{fill:#DBF3F7;}
	.st63{fill:url(#SVGID_44_);}
	.st64{fill:#D81D61;}
	.st65{fill:url(#SVGID_45_);}
	.st66{opacity:0.45;fill:url(#SVGID_46_);}
	.st67{fill:#1F192D;}
	.st68{fill:#291F3A;}
	.st69{fill:url(#SVGID_47_);}
	.st70{fill:url(#SVGID_48_);}
	.st71{fill:url(#SVGID_49_);}
	.st72{fill:url(#SVGID_50_);}
	.st73{fill:#E9687E;}
	.st74{fill:url(#SVGID_51_);}
	.st75{opacity:0.3;clip-path:url(#SVGID_53_);}
	.st76{fill:url(#SVGID_54_);}
	.st77{opacity:0.6;fill:url(#SVGID_55_);}
	.st78{fill:url(#SVGID_56_);}
	.st79{fill:none;stroke:#5B3DC4;stroke-width:1.0251;stroke-linecap:round;stroke-miterlimit:10;}
	.st80{fill:#5B3DC4;}
	.st81{fill:#3C364C;}
	.st82{fill:url(#SVGID_57_);}
	.st83{fill:url(#SVGID_58_);}
	.st84{opacity:0.45;fill:url(#SVGID_59_);}
	.st85{fill:#312D3F;}
	.st86{fill:none;stroke:#312D3F;stroke-width:1.3668;stroke-miterlimit:10;}
	.st87{fill:url(#SVGID_60_);}
	.st88{fill:url(#SVGID_61_);}
	.st89{opacity:0.6;fill:url(#SVGID_62_);}
	.st90{fill:url(#SVGID_63_);}
	.st91{fill:url(#SVGID_64_);}
	.st92{fill:url(#SVGID_65_);}
	.st93{fill:url(#SVGID_66_);}
	.st94{fill:url(#SVGID_67_);}
	.st95{fill:url(#SVGID_68_);}
	.st96{fill:url(#SVGID_69_);}
	.st97{fill:#3B3151;}
	.st98{fill:#554B70;}
	.st99{fill:url(#SVGID_70_);}
	.st100{fill:url(#SVGID_71_);}
	.st101{fill:url(#SVGID_72_);}
	.st102{fill:none;stroke:#312D3F;stroke-width:1.3668;stroke-linecap:round;stroke-miterlimit:10;}
	.st103{fill:url(#SVGID_73_);}
</style>
<g>
	<radialGradient id="SVGID_1_" cx="800.5381" cy="450.0305" r="1131.3059" gradientUnits="userSpaceOnUse">
		<stop  offset="0" style="stop-color:#C2FFCB"/>
		<stop  offset="1" style="stop-color:#00ADBD"/>
	</radialGradient>
	<rect x="-0.4" y="0" class="st0" width="1602" height="900"/>
	<path d="M1601,0.5v899H0.1V0.5H1601 M1602-0.5H-0.9v901h1603V-0.5L1602-0.5z"/>
</g>
<g id="Background">
	<linearGradient id="SVGID_2_" gradientUnits="userSpaceOnUse" x1="800.5357" y1="509.9029" x2="800.5357" y2="283.4659">
		<stop  offset="0" style="stop-color:#F4FFB3"/>
		<stop  offset="1" style="stop-color:#F5FFCB"/>
	</linearGradient>
	<path class="st1" d="M1194.7,371.1c-96.1-75.6-157.2-41.9-195-106.9C958.4,193,907.1,140,800.5,140S642.7,193,601.3,264.2
		c-37.8,65-98.9,31.3-195,106.9c-89.6,70.5-94.8,219.5-63.1,296.3c30.4,73.8,59.2,83.5,59.2,83.5h0c30.3,12.6,197,22.3,398.1,22.3
		c202,0,369.3-9.8,398.5-22.5h0c0,0,28.4-9.5,58.8-83.4C1289.5,590.6,1284.4,441.6,1194.7,371.1z"/>
	<g>
		<defs>
			<path id="SVGID_3_" d="M1194.7,371.1c-96.1-75.6-157.2-41.9-195-106.9C958.4,193,907.1,140,800.5,140S642.7,193,601.3,264.2
				c-37.8,65-98.9,31.3-195,106.9c-89.6,70.5-94.8,219.5-63.1,296.3c30.4,73.8,59.2,83.5,59.2,83.5h0c30.3,12.6,197,22.3,398.1,22.3
				c202,0,369.3-9.8,398.5-22.5h0c0,0,28.4-9.5,58.8-83.4C1289.5,590.6,1284.4,441.6,1194.7,371.1z"/>
		</defs>
		<clipPath id="SVGID_4_">
			<use xlink:href="#SVGID_3_"  style="overflow:visible;"/>
		</clipPath>
		<g class="st2">
			<g>
				<g>
					<g>
						<polygon class="st3" points="763.8,720.3 757.7,720.3 754.6,705.1 763.8,705.1 						"/>
						<polygon class="st3" points="704.5,720.3 710.6,720.3 713.7,705.1 704.5,705.1 						"/>
						<polygon class="st4" points="661.8,720.3 655.7,720.3 652.7,705.1 661.8,705.1 						"/>
						<polygon class="st4" points="602.6,720.3 608.7,720.3 611.7,705.1 602.6,705.1 						"/>
					</g>
					
						<rect x="666.9" y="469.5" transform="matrix(-1 -4.491841e-11 4.491841e-11 -1 1436.4626 1174.6122)" class="st5" width="102.7" height="235.5"/>
					
						<rect x="597.6" y="469.5" transform="matrix(-1 -4.479407e-11 4.479407e-11 -1 1264.4489 1174.6122)" class="st4" width="69.3" height="235.5"/>
					<g>
						
							<rect x="676.9" y="480" transform="matrix(-1 -4.493085e-11 4.493085e-11 -1 1436.6838 1005.3252)" class="st3" width="82.9" height="45.3"/>
						<path class="st6" d="M706.3,504.3h24.1c1.2,0,2.1-0.9,2.1-2.1l0,0c0-1.2-0.9-2.1-2.1-2.1h-24.1c-1.2,0-2.1,0.9-2.1,2.1l0,0
							C704.2,503.4,705.1,504.3,706.3,504.3z"/>
						<path class="st4" d="M706.5,486.2h23.7c1.2,0,2.2-0.7,2.7-1.8l2-4.4h-33l2,4.4C704.3,485.5,705.3,486.2,706.5,486.2z"/>
					</g>
					<g>
						
							<rect x="718.2" y="536.5" transform="matrix(-1 -4.484336e-11 4.484336e-11 -1 1519.2268 1118.3798)" class="st3" width="82.9" height="45.3"/>
						
							<rect x="676.9" y="540.6" transform="matrix(-1 -4.504365e-11 4.504365e-11 -1 1395.0437 1122.4331)" class="st4" width="41.3" height="41.3"/>
						<path class="st6" d="M747.6,560.8h24.1c1.2,0,2.1-0.9,2.1-2.1l0,0c0-1.2-0.9-2.1-2.1-2.1h-24.1c-1.2,0-2.1,0.9-2.1,2.1l0,0
							C745.5,559.9,746.4,560.8,747.6,560.8z"/>
						<path class="st4" d="M747.8,542.7h23.7c1.2,0,2.2-0.7,2.7-1.8l2-4.4h-33l2,4.4C745.5,542,746.6,542.7,747.8,542.7z"/>
					</g>
					<g>
						
							<rect x="676.9" y="593.1" transform="matrix(-1 -4.495305e-11 4.495305e-11 -1 1436.6838 1231.4342)" class="st3" width="82.9" height="45.3"/>
						<path class="st6" d="M706.3,617.4h24.1c1.2,0,2.1-0.9,2.1-2.1l0,0c0-1.2-0.9-2.1-2.1-2.1h-24.1c-1.2,0-2.1,0.9-2.1,2.1l0,0
							C704.2,616.4,705.1,617.4,706.3,617.4z"/>
						<path class="st4" d="M706.5,599.2h23.7c1.2,0,2.2-0.7,2.7-1.8l2-4.4h-33l2,4.4C704.3,598.6,705.3,599.2,706.5,599.2z"/>
					</g>
					<g>
						
							<rect x="676.9" y="649.6" transform="matrix(-1 -4.490909e-11 4.490909e-11 -1 1436.6838 1344.4888)" class="st3" width="82.9" height="45.3"/>
						<path class="st6" d="M706.3,673.9h24.1c1.2,0,2.1-0.9,2.1-2.1l0,0c0-1.2-0.9-2.1-2.1-2.1h-24.1c-1.2,0-2.1,0.9-2.1,2.1l0,0
							C704.2,673,705.1,673.9,706.3,673.9z"/>
						<path class="st4" d="M706.5,655.8h23.7c1.2,0,2.2-0.7,2.7-1.8l2-4.4h-33l2,4.4C704.3,655.1,705.3,655.8,706.5,655.8z"/>
					</g>
				</g>
				<g>
					<g>
						<polygon class="st3" points="609.8,720.3 603.7,720.3 600.6,705.1 609.8,705.1 						"/>
						<polygon class="st3" points="550.5,720.3 556.6,720.3 559.7,705.1 550.5,705.1 						"/>
						<polygon class="st4" points="507.9,720.3 501.8,720.3 498.7,705.1 507.9,705.1 						"/>
						<polygon class="st4" points="448.6,720.3 454.7,720.3 457.8,705.1 448.6,705.1 						"/>
					</g>
					
						<rect x="512.9" y="469.5" transform="matrix(-1 -4.491841e-11 4.491841e-11 -1 1128.5469 1174.6122)" class="st5" width="102.7" height="235.5"/>
					
						<rect x="443.6" y="469.5" transform="matrix(-1 -4.479407e-11 4.479407e-11 -1 956.533 1174.6122)" class="st4" width="69.3" height="235.5"/>
					<g>
						
							<rect x="522.9" y="480" transform="matrix(-1 -4.493085e-11 4.493085e-11 -1 1128.7679 1005.3252)" class="st3" width="82.9" height="45.3"/>
						<path class="st6" d="M552.3,504.3h24.1c1.2,0,2.1-0.9,2.1-2.1l0,0c0-1.2-0.9-2.1-2.1-2.1h-24.1c-1.2,0-2.1,0.9-2.1,2.1l0,0
							C550.2,503.4,551.2,504.3,552.3,504.3z"/>
						<path class="st4" d="M552.6,486.2h23.7c1.2,0,2.2-0.7,2.7-1.8l2-4.4h-33l2,4.4C550.3,485.5,551.4,486.2,552.6,486.2z"/>
					</g>
					<g>
						
							<rect x="564.2" y="536.5" transform="matrix(-1 -4.484336e-11 4.484336e-11 -1 1211.311 1118.3798)" class="st3" width="82.9" height="45.3"/>
						
							<rect x="522.9" y="540.6" transform="matrix(-1 -4.504365e-11 4.504365e-11 -1 1087.1279 1122.4331)" class="st4" width="41.3" height="41.3"/>
						<path class="st6" d="M593.6,560.8h24.1c1.2,0,2.1-0.9,2.1-2.1l0,0c0-1.2-0.9-2.1-2.1-2.1h-24.1c-1.2,0-2.1,0.9-2.1,2.1l0,0
							C591.5,559.9,592.4,560.8,593.6,560.8z"/>
						<path class="st4" d="M593.8,542.7h23.7c1.2,0,2.2-0.7,2.7-1.8l2-4.4h-33l2,4.4C591.6,542,592.7,542.7,593.8,542.7z"/>
					</g>
					<g>
						
							<rect x="522.9" y="593.1" transform="matrix(-1 -4.495305e-11 4.495305e-11 -1 1128.7679 1231.4342)" class="st3" width="82.9" height="45.3"/>
						<path class="st6" d="M552.3,617.4h24.1c1.2,0,2.1-0.9,2.1-2.1l0,0c0-1.2-0.9-2.1-2.1-2.1h-24.1c-1.2,0-2.1,0.9-2.1,2.1l0,0
							C550.2,616.4,551.2,617.4,552.3,617.4z"/>
						<path class="st4" d="M552.6,599.2h23.7c1.2,0,2.2-0.7,2.7-1.8l2-4.4h-33l2,4.4C550.3,598.6,551.4,599.2,552.6,599.2z"/>
					</g>
					<g>
						
							<rect x="522.9" y="649.6" transform="matrix(-1 -4.490909e-11 4.490909e-11 -1 1128.7679 1344.4888)" class="st3" width="82.9" height="45.3"/>
						<path class="st6" d="M552.3,673.9h24.1c1.2,0,2.1-0.9,2.1-2.1l0,0c0-1.2-0.9-2.1-2.1-2.1h-24.1c-1.2,0-2.1,0.9-2.1,2.1l0,0
							C550.2,673,551.2,673.9,552.3,673.9z"/>
						<path class="st4" d="M552.6,655.8h23.7c1.2,0,2.2-0.7,2.7-1.8l2-4.4h-33l2,4.4C550.3,655.1,551.4,655.8,552.6,655.8z"/>
					</g>
				</g>
				<g>
					<g>
						<polygon class="st3" points="455.8,720.3 449.7,720.3 446.7,705.1 455.8,705.1 						"/>
						<polygon class="st3" points="396.6,720.3 402.7,720.3 405.7,705.1 396.6,705.1 						"/>
						<polygon class="st4" points="353.9,720.3 347.8,720.3 344.8,705.1 353.9,705.1 						"/>
						<polygon class="st4" points="294.7,720.3 300.8,720.3 303.8,705.1 294.7,705.1 						"/>
					</g>
					
						<rect x="358.9" y="469.5" transform="matrix(-1 -4.491841e-11 4.491841e-11 -1 820.6311 1174.6122)" class="st5" width="102.7" height="235.5"/>
					
						<rect x="289.7" y="469.5" transform="matrix(-1 -4.479407e-11 4.479407e-11 -1 648.6172 1174.6122)" class="st4" width="69.3" height="235.5"/>
					<g>
						
							<rect x="369" y="480" transform="matrix(-1 -4.493085e-11 4.493085e-11 -1 820.8522 1005.3252)" class="st3" width="82.9" height="45.3"/>
						<path class="st6" d="M398.4,504.3h24.1c1.2,0,2.1-0.9,2.1-2.1l0,0c0-1.2-0.9-2.1-2.1-2.1h-24.1c-1.2,0-2.1,0.9-2.1,2.1l0,0
							C396.3,503.4,397.2,504.3,398.4,504.3z"/>
						<path class="st4" d="M398.6,486.2h23.7c1.2,0,2.2-0.7,2.7-1.8l2-4.4h-33l2,4.4C396.4,485.5,397.4,486.2,398.6,486.2z"/>
					</g>
					<g>
						
							<rect x="410.2" y="536.5" transform="matrix(-1 -4.484336e-11 4.484336e-11 -1 903.3953 1118.3798)" class="st3" width="82.9" height="45.3"/>
						
							<rect x="369" y="540.6" transform="matrix(-1 -4.504365e-11 4.504365e-11 -1 779.2122 1122.4331)" class="st4" width="41.3" height="41.3"/>
						<path class="st6" d="M439.6,560.8h24.1c1.2,0,2.1-0.9,2.1-2.1l0,0c0-1.2-0.9-2.1-2.1-2.1h-24.1c-1.2,0-2.1,0.9-2.1,2.1l0,0
							C437.5,559.9,438.5,560.8,439.6,560.8z"/>
						<path class="st4" d="M439.9,542.7h23.7c1.2,0,2.2-0.7,2.7-1.8l2-4.4h-33l2,4.4C437.6,542,438.7,542.7,439.9,542.7z"/>
					</g>
					<g>
						
							<rect x="369" y="593.1" transform="matrix(-1 -4.495305e-11 4.495305e-11 -1 820.8522 1231.4342)" class="st3" width="82.9" height="45.3"/>
						<path class="st6" d="M398.4,617.4h24.1c1.2,0,2.1-0.9,2.1-2.1l0,0c0-1.2-0.9-2.1-2.1-2.1h-24.1c-1.2,0-2.1,0.9-2.1,2.1l0,0
							C396.3,616.4,397.2,617.4,398.4,617.4z"/>
						<path class="st4" d="M398.6,599.2h23.7c1.2,0,2.2-0.7,2.7-1.8l2-4.4h-33l2,4.4C396.4,598.6,397.4,599.2,398.6,599.2z"/>
					</g>
					<g>
						
							<rect x="369" y="649.6" transform="matrix(-1 -4.490909e-11 4.490909e-11 -1 820.8522 1344.4888)" class="st3" width="82.9" height="45.3"/>
						<path class="st6" d="M398.4,673.9h24.1c1.2,0,2.1-0.9,2.1-2.1l0,0c0-1.2-0.9-2.1-2.1-2.1h-24.1c-1.2,0-2.1,0.9-2.1,2.1l0,0
							C396.3,673,397.2,673.9,398.4,673.9z"/>
						<path class="st4" d="M398.6,655.8h23.7c1.2,0,2.2-0.7,2.7-1.8l2-4.4h-33l2,4.4C396.4,655.1,397.4,655.8,398.6,655.8z"/>
					</g>
				</g>
			</g>
			<g>
				<g>
					<g>
						<g>
							<polygon class="st3" points="848.2,720.3 853.6,720.3 856.3,706.8 848.2,706.8 							"/>
							<polygon class="st3" points="900.7,720.3 895.3,720.3 892.6,706.8 900.7,706.8 							"/>
							<polygon class="st4" points="938.5,720.3 943.9,720.3 946.6,706.8 938.5,706.8 							"/>
							<polygon class="st4" points="991,720.3 985.6,720.3 982.9,706.8 991,706.8 							"/>
						</g>
					</g>
					<rect x="843.4" y="499.3" class="st5" width="90.5" height="207.5"/>
					<rect x="933.9" y="499.3" class="st4" width="61" height="207.5"/>
					<g>
						<rect x="852" y="508.5" class="st3" width="73.1" height="39.9"/>
						<path class="st6" d="M899.2,529.9h-21.2c-1,0-1.9-0.8-1.9-1.9l0,0c0-1,0.8-1.9,1.9-1.9h21.2c1,0,1.9,0.8,1.9,1.9l0,0
							C901,529.1,900.2,529.9,899.2,529.9z"/>
						<path class="st4" d="M899,513.9h-20.8c-1,0-2-0.6-2.4-1.6l-1.7-3.9h29.1l-1.7,3.9C900.9,513.3,900,513.9,899,513.9z"/>
					</g>
					<g>
						<rect x="815.6" y="608.1" class="st3" width="73.1" height="39.9"/>
						<rect x="888.7" y="611.7" class="st4" width="36.4" height="36.4"/>
						<path class="st6" d="M862.8,629.5h-21.2c-1,0-1.9-0.8-1.9-1.9l0,0c0-1,0.8-1.9,1.9-1.9h21.2c1,0,1.9,0.8,1.9,1.9l0,0
							C864.6,628.7,863.8,629.5,862.8,629.5z"/>
						<path class="st4" d="M862.6,613.6h-20.8c-1,0-2-0.6-2.4-1.6l-1.7-3.9h29.1L865,612C864.6,613,863.6,613.6,862.6,613.6z"/>
					</g>
					<g>
						<rect x="852" y="558.3" class="st3" width="73.1" height="39.9"/>
						<path class="st6" d="M899.2,579.7h-21.2c-1,0-1.9-0.8-1.9-1.9l0,0c0-1,0.8-1.9,1.9-1.9h21.2c1,0,1.9,0.8,1.9,1.9l0,0
							C901,578.9,900.2,579.7,899.2,579.7z"/>
						<path class="st4" d="M899,563.8h-20.8c-1,0-2-0.6-2.4-1.6l-1.7-3.9h29.1l-1.7,3.9C900.9,563.1,900,563.8,899,563.8z"/>
					</g>
					<g>
						<rect x="852" y="657.9" class="st3" width="73.1" height="39.9"/>
						<path class="st6" d="M899.2,679.3h-21.2c-1,0-1.9-0.8-1.9-1.9l0,0c0-1,0.8-1.9,1.9-1.9h21.2c1,0,1.9,0.8,1.9,1.9l0,0
							C901,678.5,900.2,679.3,899.2,679.3z"/>
						<path class="st4" d="M899,663.4h-20.8c-1,0-2-0.6-2.4-1.6l-1.7-3.9h29.1l-1.7,3.9C900.9,662.8,900,663.4,899,663.4z"/>
					</g>
				</g>
				<g>
					<g>
						<g>
							<polygon class="st3" points="986.6,720.3 992,720.3 994.7,706.8 986.6,706.8 							"/>
							<polygon class="st3" points="1039.1,720.3 1033.7,720.3 1031,706.8 1039.1,706.8 							"/>
							<polygon class="st4" points="1076.9,720.3 1082.3,720.3 1085,706.8 1076.9,706.8 							"/>
							<polygon class="st4" points="1129.4,720.3 1124,720.3 1121.3,706.8 1129.4,706.8 							"/>
						</g>
					</g>
					<rect x="981.7" y="499.3" class="st5" width="90.5" height="207.5"/>
					<rect x="1072.3" y="499.3" class="st4" width="61" height="207.5"/>
					<g>
						<rect x="990.4" y="508.5" class="st3" width="73.1" height="39.9"/>
						<path class="st6" d="M1037.5,529.9h-21.2c-1,0-1.9-0.8-1.9-1.9l0,0c0-1,0.8-1.9,1.9-1.9h21.2c1,0,1.9,0.8,1.9,1.9l0,0
							C1039.4,529.1,1038.5,529.9,1037.5,529.9z"/>
						<path class="st4" d="M1037.3,513.9h-20.8c-1,0-2-0.6-2.4-1.6l-1.7-3.9h29.1l-1.7,3.9C1039.3,513.3,1038.4,513.9,1037.3,513.9z
							"/>
					</g>
					<g>
						<rect x="954" y="608.1" class="st3" width="73.1" height="39.9"/>
						<rect x="1027.1" y="611.7" class="st4" width="36.4" height="36.4"/>
						<path class="st6" d="M1001.2,629.5h-21.2c-1,0-1.9-0.8-1.9-1.9l0,0c0-1,0.8-1.9,1.9-1.9h21.2c1,0,1.9,0.8,1.9,1.9l0,0
							C1003,628.7,1002.2,629.5,1001.2,629.5z"/>
						<path class="st4" d="M1001,613.6h-20.8c-1,0-2-0.6-2.4-1.6l-1.7-3.9h29.1l-1.7,3.9C1002.9,613,1002,613.6,1001,613.6z"/>
					</g>
					<g>
						<rect x="990.4" y="558.3" class="st3" width="73.1" height="39.9"/>
						<path class="st6" d="M1037.5,579.7h-21.2c-1,0-1.9-0.8-1.9-1.9l0,0c0-1,0.8-1.9,1.9-1.9h21.2c1,0,1.9,0.8,1.9,1.9l0,0
							C1039.4,578.9,1038.5,579.7,1037.5,579.7z"/>
						<path class="st4" d="M1037.3,563.8h-20.8c-1,0-2-0.6-2.4-1.6l-1.7-3.9h29.1l-1.7,3.9C1039.3,563.1,1038.4,563.8,1037.3,563.8z
							"/>
					</g>
					<g>
						<rect x="990.4" y="657.9" class="st3" width="73.1" height="39.9"/>
						<path class="st6" d="M1037.5,679.3h-21.2c-1,0-1.9-0.8-1.9-1.9l0,0c0-1,0.8-1.9,1.9-1.9h21.2c1,0,1.9,0.8,1.9,1.9l0,0
							C1039.4,678.5,1038.5,679.3,1037.5,679.3z"/>
						<path class="st4" d="M1037.3,663.4h-20.8c-1,0-2-0.6-2.4-1.6l-1.7-3.9h29.1l-1.7,3.9C1039.3,662.8,1038.4,663.4,1037.3,663.4z
							"/>
					</g>
				</g>
				<g>
					<g>
						<g>
							<polygon class="st3" points="1128.3,720.3 1133.7,720.3 1136.4,706.8 1128.3,706.8 							"/>
							<polygon class="st3" points="1180.8,720.3 1175.4,720.3 1172.7,706.8 1180.8,706.8 							"/>
							<polygon class="st4" points="1218.6,720.3 1224,720.3 1226.7,706.8 1218.6,706.8 							"/>
							<polygon class="st4" points="1271.1,720.3 1265.7,720.3 1263,706.8 1271.1,706.8 							"/>
						</g>
					</g>
					<rect x="1123.5" y="499.3" class="st5" width="90.5" height="207.5"/>
					<rect x="1214" y="499.3" class="st4" width="61" height="207.5"/>
					<g>
						<rect x="1132.1" y="508.5" class="st3" width="73.1" height="39.9"/>
						<path class="st6" d="M1179.2,529.9H1158c-1,0-1.9-0.8-1.9-1.9l0,0c0-1,0.8-1.9,1.9-1.9h21.2c1,0,1.9,0.8,1.9,1.9l0,0
							C1181.1,529.1,1180.3,529.9,1179.2,529.9z"/>
						<path class="st4" d="M1179,513.9h-20.8c-1,0-2-0.6-2.4-1.6l-1.7-3.9h29.1l-1.7,3.9C1181,513.3,1180.1,513.9,1179,513.9z"/>
					</g>
					<g>
						<rect x="1095.7" y="608.1" class="st3" width="73.1" height="39.9"/>
						<rect x="1168.8" y="611.7" class="st4" width="36.4" height="36.4"/>
						<path class="st6" d="M1142.9,629.5h-21.2c-1,0-1.9-0.8-1.9-1.9l0,0c0-1,0.8-1.9,1.9-1.9h21.2c1,0,1.9,0.8,1.9,1.9l0,0
							C1144.7,628.7,1143.9,629.5,1142.9,629.5z"/>
						<path class="st4" d="M1142.7,613.6h-20.8c-1,0-2-0.6-2.4-1.6l-1.7-3.9h29.1l-1.7,3.9C1144.7,613,1143.7,613.6,1142.7,613.6z"
							/>
					</g>
					<g>
						<rect x="1132.1" y="558.3" class="st3" width="73.1" height="39.9"/>
						<path class="st6" d="M1179.2,579.7H1158c-1,0-1.9-0.8-1.9-1.9l0,0c0-1,0.8-1.9,1.9-1.9h21.2c1,0,1.9,0.8,1.9,1.9l0,0
							C1181.1,578.9,1180.3,579.7,1179.2,579.7z"/>
						<path class="st4" d="M1179,563.8h-20.8c-1,0-2-0.6-2.4-1.6l-1.7-3.9h29.1l-1.7,3.9C1181,563.1,1180.1,563.8,1179,563.8z"/>
					</g>
					<g>
						<rect x="1132.1" y="657.9" class="st3" width="73.1" height="39.9"/>
						<path class="st6" d="M1179.2,679.3H1158c-1,0-1.9-0.8-1.9-1.9l0,0c0-1,0.8-1.9,1.9-1.9h21.2c1,0,1.9,0.8,1.9,1.9l0,0
							C1181.1,678.5,1180.3,679.3,1179.2,679.3z"/>
						<path class="st4" d="M1179,663.4h-20.8c-1,0-2-0.6-2.4-1.6l-1.7-3.9h29.1l-1.7,3.9C1181,662.8,1180.1,663.4,1179,663.4z"/>
					</g>
				</g>
			</g>
			<rect x="350.1" y="720.3" class="st3" width="925.7" height="52.9"/>
			<linearGradient id="SVGID_5_" gradientUnits="userSpaceOnUse" x1="794.9142" y1="220.8166" x2="794.9142" y2="83.1069">
				<stop  offset="0" style="stop-color:#F4FFB3"/>
				<stop  offset="1" style="stop-color:#F5FFCB"/>
			</linearGradient>
			<circle class="st7" cx="794.9" cy="188.4" r="192.6"/>
		</g>
	</g>
</g>
<g id="Transfer_Process">
	<g>
		<g>
			<g>
				<path class="st8" d="M632.3,465.3c0,0-0.2-0.8-0.6-2.2l2.2-0.6c0.4,1.4,0.6,2.1,0.6,2.1L632.3,465.3z"/>
			</g>
			<g>
				<g>
					<path class="st8" d="M630.5,458.6c-0.2-0.9-0.4-1.9-0.7-3l2.2-0.5c0.2,1.1,0.4,2,0.7,2.9L630.5,458.6z"/>
				</g>
				<g>
					<path class="st8" d="M628.6,449.5c-0.4-2-0.7-4.1-1-6.1l2.3-0.3c0.3,2,0.6,4.1,1,6L628.6,449.5z M626.9,437.2
						c-0.2-2-0.4-4-0.6-6.2l2.3-0.2c0.2,2.1,0.3,4.1,0.6,6.1L626.9,437.2z M626,424.9c-0.1-2.1-0.1-4.2-0.2-6.2l2.3,0
						c0,2,0.1,4.1,0.2,6.1L626,424.9z M991.4,413.2c0-2-0.1-4.1-0.2-6.1l2.3-0.1c0.1,2.1,0.2,4.2,0.2,6.2L991.4,413.2z M628.2,412.6
						l-2.3-0.1c0.1-2.1,0.1-4.2,0.3-6.2l2.3,0.1C628.3,408.5,628.2,410.5,628.2,412.6z M990.7,401c-0.2-2-0.5-4-0.8-6l2.3-0.4
						c0.3,2.1,0.6,4.1,0.8,6.2L990.7,401z M628.9,400.4l-2.3-0.2c0.2-2.1,0.4-4.1,0.7-6.2l2.3,0.3
						C629.3,396.3,629.1,398.3,628.9,400.4z M988.8,389c-0.4-2-0.9-4-1.3-6l2.2-0.5c0.5,2,0.9,4,1.4,6.1L988.8,389z M630.5,388.2
						l-2.3-0.4c0.3-2,0.7-4.1,1.2-6.1l2.2,0.5C631.2,384.2,630.9,386.2,630.5,388.2z M985.9,377.1c-0.6-1.9-1.2-3.9-1.8-5.8l2.2-0.7
						c0.7,2,1.3,4,1.9,5.9L985.9,377.1z M633,376.3l-2.2-0.6c0.5-2,1-4,1.6-6l2.2,0.6C634,372.3,633.5,374.3,633,376.3z M982,365.5
						c-0.7-1.9-1.5-3.8-2.3-5.7l2.1-0.9c0.8,1.9,1.6,3.8,2.3,5.7L982,365.5z M636.4,364.6l-2.2-0.7c0.7-1.9,1.4-3.9,2.1-5.8l2.1,0.8
						C637.8,360.7,637.1,362.6,636.4,364.6z M977.1,354.3c-0.9-1.8-1.8-3.7-2.7-5.5l2-1.1c1,1.8,1.9,3.7,2.8,5.5L977.1,354.3z
						 M640.8,353.2l-2.1-0.9c0.8-1.9,1.7-3.8,2.6-5.6l2.1,1C642.5,349.4,641.6,351.3,640.8,353.2z M971.4,343.5
						c-1-1.8-2.1-3.5-3.2-5.2l1.9-1.2c1.1,1.7,2.2,3.5,3.2,5.3L971.4,343.5z M646.2,342.2l-2-1.1c1-1.8,2-3.6,3.1-5.4l2,1.2
						C648.1,338.6,647.1,340.4,646.2,342.2z M964.9,333.2c-1.1-1.7-2.3-3.3-3.5-5l1.8-1.4c1.2,1.7,2.4,3.4,3.6,5.1L964.9,333.2z
						 M652.4,331.7l-1.9-1.3c1.1-1.7,2.3-3.4,3.5-5.1l1.9,1.3C654.7,328.3,653.5,330,652.4,331.7z M957.7,323.3
						c-1.2-1.6-2.5-3.2-3.9-4.7l1.8-1.5c1.3,1.6,2.6,3.2,3.9,4.8L957.7,323.3z M659.5,321.8l-1.8-1.4c1.3-1.6,2.6-3.2,3.9-4.8
						l1.7,1.5C662.1,318.6,660.8,320.2,659.5,321.8z M949.8,314c-1.3-1.5-2.7-3-4.2-4.5l1.7-1.6c1.4,1.5,2.8,3,4.2,4.5L949.8,314z
						 M667.5,312.5l-1.7-1.6c1.4-1.5,2.8-3,4.3-4.5l1.6,1.6C670.3,309.6,668.8,311,667.5,312.5z M941.4,305.1
						c-1.4-1.4-2.9-2.8-4.5-4.1l1.5-1.7c1.6,1.4,3.1,2.8,4.6,4.2L941.4,305.1z M676.1,303.9l-1.5-1.7c1.5-1.4,3.1-2.8,4.6-4.1
						l1.5,1.7C679.1,301.2,677.6,302.5,676.1,303.9z M932.2,297.1c-1.6-1.3-3.2-2.5-4.8-3.7l1.3-1.8c1.7,1.2,3.3,2.5,4.9,3.8
						L932.2,297.1z M685.4,296l-1.4-1.8c1.6-1.3,3.3-2.5,4.9-3.7l1.3,1.9C688.6,293.5,687,294.7,685.4,296z M922.4,289.9
						c-1.7-1.1-3.4-2.2-5.2-3.3l1.2-2c1.8,1.1,3.5,2.2,5.2,3.3L922.4,289.9z M695.3,288.9L694,287c1.7-1.1,3.5-2.2,5.2-3.3l1.2,2
						C698.7,286.7,697,287.8,695.3,288.9z M912,283.5c-1.8-1-3.6-1.9-5.4-2.9l1-2c1.8,0.9,3.7,1.9,5.5,2.9L912,283.5z M705.7,282.6
						l-1.1-2c1.8-1,3.6-2,5.5-2.9l1,2C709.3,280.6,707.5,281.6,705.7,282.6z M901.1,278c-1.8-0.8-3.7-1.7-5.6-2.5l0.9-2.1
						c1.9,0.8,3.8,1.7,5.7,2.5L901.1,278z M716.7,277.1l-1-2.1c1.9-0.9,3.8-1.7,5.7-2.5l0.9,2.1
						C720.4,275.4,718.5,276.2,716.7,277.1z M889.8,273.2c-1.9-0.7-3.8-1.4-5.7-2.1l0.8-2.2c2,0.7,3.9,1.4,5.8,2.1L889.8,273.2z
						 M727.9,272.4l-0.8-2.1c1.9-0.7,3.9-1.4,5.8-2.1l0.7,2.2C731.7,270.9,729.8,271.6,727.9,272.4z M878.3,269.1
						c-1.9-0.6-3.9-1.2-5.9-1.8l0.6-2.2c2,0.6,4,1.2,5.9,1.8L878.3,269.1z M739.5,268.4l-0.7-2.2c2-0.6,3.9-1.2,5.9-1.7l0.6,2.2
						C743.4,267.2,741.4,267.8,739.5,268.4z M866.5,265.7c-2-0.5-4-1-6-1.4l0.5-2.2c2,0.5,4,0.9,6,1.5L866.5,265.7z M751.3,265.1
						l-0.5-2.2c2-0.5,4-1,6-1.4l0.5,2.2C755.2,264.2,753.2,264.6,751.3,265.1z M854.6,263c-2-0.4-4-0.8-6-1.1l0.4-2.3
						c2,0.3,4.1,0.7,6.1,1.1L854.6,263z M763.2,262.5l-0.4-2.2c2-0.4,4.1-0.7,6.1-1.1l0.4,2.3C767.2,261.8,765.2,262.1,763.2,262.5z
						 M842.5,260.9c-2-0.3-4-0.6-6.1-0.8l0.3-2.3c2.1,0.2,4.1,0.5,6.1,0.8L842.5,260.9z M775.3,260.6l-0.3-2.3
						c2-0.3,4.1-0.5,6.1-0.7l0.2,2.3C779.3,260,777.3,260.3,775.3,260.6z M830.3,259.5c-2-0.2-4.1-0.4-6.1-0.5l0.2-2.3
						c2.1,0.1,4.1,0.3,6.2,0.5L830.3,259.5z M787.5,259.2l-0.2-2.3c2.1-0.2,4.1-0.3,6.2-0.4l0.1,2.3
						C791.5,258.9,789.5,259.1,787.5,259.2z M818.1,258.7c-2-0.1-4.1-0.2-6.1-0.2l0-2.3c2.1,0,4.1,0.1,6.2,0.2L818.1,258.7z
						 M799.7,258.6l-0.1-2.3c2.1-0.1,4.1-0.1,6.2-0.1l0,2.3C803.8,258.4,801.7,258.5,799.7,258.6z"/>
				</g>
				<g>
					<path class="st8" d="M993.4,422.6l-2.3-0.2c0.1-0.9,0.1-1.9,0.2-3l2.3,0.1C993.6,420.6,993.5,421.7,993.4,422.6z"/>
				</g>
			</g>
			<g>
				<path class="st8" d="M992.9,427.2l-2.3-0.4c0,0,0.1-0.8,0.3-2.2l2.3,0.3C993,426.4,992.9,427.2,992.9,427.2z"/>
			</g>
		</g>
	</g>
	<linearGradient id="SVGID_6_" gradientUnits="userSpaceOnUse" x1="635.8305" y1="680.8778" x2="629.949" y2="412.2902">
		<stop  offset="0" style="stop-color:#DBF3F7"/>
		<stop  offset="1" style="stop-color:#FFFFFF"/>
	</linearGradient>
	<path class="st9" d="M581.8,390.6c0,0,25.9,18.3,61.5,31.4l33.1-63.9c0,0-30.7-1.9-48.3-7.8c-17.6-5.9-29.1-14.6-29.1-14.6
		L581.8,390.6z"/>
	<g>
		<path class="st10" d="M730.4,296.6l29.4,20.2c0,0,5.8-10.8-3.4-19.9l-14.6-9.6L730.4,296.6z"/>
		<linearGradient id="SVGID_7_" gradientUnits="userSpaceOnUse" x1="639.393" y1="446.3701" x2="702.7823" y2="290.1841">
			<stop  offset="0" style="stop-color:#DBF3F7"/>
			<stop  offset="1" style="stop-color:#FFFFFF"/>
		</linearGradient>
		<path class="st11" d="M651.5,277.7l50.7,38.5c0,0,8.3-12.6,27.2-19.2c18.9-6.7,27.1,0,27.1,0s-26.9-23-34.4-28.6
			c-7.5-5.6-21.5-7.2-40.1-3.3S651.5,277.7,651.5,277.7z"/>
	</g>
	<g>
		<linearGradient id="SVGID_8_" gradientUnits="userSpaceOnUse" x1="763.6835" y1="390.3816" x2="853.2126" y2="248.5726">
			<stop  offset="0" style="stop-color:#DBF3F7"/>
			<stop  offset="1" style="stop-color:#FFFFFF"/>
		</linearGradient>
		<path class="st12" d="M794.9,250.9c0,0,10.3,12,22.5,21.6c14.7,11.5,34.9,22.3,34.9,22.3s32.6-10.9,49.2-32.8l-35.2-27.6
			c0,0-15.4,12.4-56.6,11.3L794.9,250.9z"/>
		<path class="st10" d="M817.4,272.5c-13-8.5-22.5-21.6-22.5-21.6l16.6-10c0,0-0.1,1.7,0,4.8c0.1,2.2,0.3,5.1,0.8,8.7
			C813.6,263.1,817.4,272.5,817.4,272.5z"/>
	</g>
	<g>
		<linearGradient id="SVGID_9_" gradientUnits="userSpaceOnUse" x1="1012.6547" y1="556.4124" x2="972.9548" y2="304.9791">
			<stop  offset="0" style="stop-color:#DBF3F7"/>
			<stop  offset="1" style="stop-color:#FFFFFF"/>
		</linearGradient>
		<path class="st13" d="M967.3,298.1c0,0-19.2,0-28,0s-14.5,3.4-14.9,9.8s4.2,15.5,9.3,24.3s17.8,22.1,36.1,26.4
			c18.3,4.3,50.8,2.6,60.8-1.7c0,0-22.3-3.2-37.3-15.8C978.2,328.5,971.6,318.9,967.3,298.1z"/>
		<path class="st10" d="M924.4,307.9c-0.1,1.3,0.1,2.7,0.3,4.1c3.2-2.5,8.3-4.2,8.3-4.2c-1.6-3.7-1.5-7-1.3-8.6
			C927.3,300.7,924.6,303.6,924.4,307.9z"/>
		<linearGradient id="SVGID_10_" gradientUnits="userSpaceOnUse" x1="966.7683" y1="414.4121" x2="993.7251" y2="303.6443">
			<stop  offset="0" style="stop-color:#CAE7EA"/>
			<stop  offset="1" style="stop-color:#CAE7EA;stop-opacity:0"/>
		</linearGradient>
		<path class="st14" d="M968,350.7c-21.2-4-31.8-14.6-31.9-14.8c6.1,8.5,17.8,18.9,33.7,22.7c18.3,4.3,50.8,2.6,60.8-1.7
			c0,0-13.5-1.9-26.5-8.7C997.4,350.3,983.4,353.6,968,350.7z"/>
	</g>
	<g>
		<linearGradient id="SVGID_11_" gradientUnits="userSpaceOnUse" x1="829.2575" y1="335.854" x2="769.2837" y2="440.4594">
			<stop  offset="0" style="stop-color:#C3DB35"/>
			<stop  offset="1" style="stop-color:#E2FF7E"/>
		</linearGradient>
		<circle class="st15" cx="802.3" cy="382.9" r="51.2"/>
		<path class="st16" d="M802.3,331.7c-4,0-8,0.5-11.7,1.4c-0.3,2.4-0.5,4.8-0.5,7.3c0,28.3,22.9,51.2,51.2,51.2c4,0,8-0.5,11.7-1.4
			c0.3-2.4,0.5-4.8,0.5-7.3C853.5,354.6,830.6,331.7,802.3,331.7z"/>
		<g>
			<path class="st17" d="M784.9,360.9l10.6-8v10.7c30.6,0,34.6,20.4,34.6,20.4c-14.2-14.2-34.6-9.3-34.6-9.3v10.1l-10.6-8l-10.6-8
				L784.9,360.9z"/>
			<path class="st17" d="M819.6,405l-10.6,8v-10.7c-30.6,0-34.6-20.4-34.6-20.4c14.2,14.2,34.6,9.3,34.6,9.3V381l10.6,8l10.6,8
				L819.6,405z"/>
		</g>
	</g>
</g>
<g id="Woman_Receive_File">
	<ellipse class="st18" cx="1031.9" cy="748.4" rx="157.3" ry="17.7"/>
	<g>
		<ellipse class="st19" cx="609.9" cy="747.4" rx="188.1" ry="14.7"/>
		<ellipse class="st19" cx="636.4" cy="755.2" rx="171.8" ry="6.9"/>
	</g>
	<g>
		<polygon class="st20" points="610,478.4 618.6,540.8 705.1,540.8 697.6,486.8 641.7,486.8 641.5,485.9 640.5,478.4 		"/>
		<linearGradient id="SVGID_12_" gradientUnits="userSpaceOnUse" x1="661.0747" y1="592.2437" x2="661.0747" y2="483.761">
			<stop  offset="0" style="stop-color:#DBF3F7"/>
			<stop  offset="1" style="stop-color:#FFFFFF"/>
		</linearGradient>
		<polygon class="st21" points="704.4,540.8 619.5,540.8 617.7,456.9 702.7,456.9 		"/>
		<polygon class="st22" points="713.7,478.4 705.1,540.8 618.6,540.8 626.1,486.8 682,486.8 682.2,485.9 683.2,478.4 		"/>
		<path class="st20" d="M700.9,500.2h-19c-1.1,0-1.8-0.9-1.6-1.9v0c0.2-1.1,1.2-1.9,2.3-1.9h19c1.1,0,1.8,0.9,1.6,1.9v0
			C703,499.3,702,500.2,700.9,500.2z"/>
	</g>
	<g>
		<path class="st23" d="M595.6,561.4c0,0,0.7,7.9-11.8,17.6c-12.5,9.7-23.4,6.2-23.4,6.2s0.5-16.5,11.6-21.4
			C583.1,558.9,595.6,561.4,595.6,561.4z"/>
		<linearGradient id="SVGID_13_" gradientUnits="userSpaceOnUse" x1="612.7837" y1="604.7786" x2="654.9343" y2="542.3696">
			<stop  offset="0" style="stop-color:#FFC0AC"/>
			<stop  offset="1" style="stop-color:#FFD6C7"/>
		</linearGradient>
		<path class="st24" d="M587,559.1l12.3,21.6l79.1,10v18.7h-89.1c-3.9,0-7.6-1.9-9.9-5.1l-17.9-25C561.4,579.2,576,560.4,587,559.1z
			"/>
		<linearGradient id="SVGID_14_" gradientUnits="userSpaceOnUse" x1="526.3895" y1="627.5267" x2="629.9689" y2="560.87">
			<stop  offset="0" style="stop-color:#F7826B"/>
			<stop  offset="1" style="stop-color:#F7826B;stop-opacity:0"/>
		</linearGradient>
		<path class="st25" d="M602.4,606.7c-8.8-4.7-26-22-20.6-29.8c2.5-3.6,6.9-6.1,10.8-7.8l-5.7-10c-11,1.3-25.6,20.1-25.6,20.1
			l17.9,25c2.3,3.2,6,5.1,9.9,5.1h14.1C604,608.3,603.7,607.4,602.4,606.7z"/>
		<linearGradient id="SVGID_15_" gradientUnits="userSpaceOnUse" x1="541.2714" y1="602.9212" x2="560.8763" y2="488.2323">
			<stop  offset="0" style="stop-color:#ED2E69"/>
			<stop  offset="1" style="stop-color:#FF5F81"/>
		</linearGradient>
		<path class="st26" d="M516.2,473.6l23,7.6c4.9,1.6,9.1,4.9,11.8,9.2l44.5,71c0,0-23.2-0.1-35.1,23.8L516.2,473.6z"/>
		<linearGradient id="SVGID_16_" gradientUnits="userSpaceOnUse" x1="549.1259" y1="569.7895" x2="577.553" y2="518.1631">
			<stop  offset="8.100558e-02" style="stop-color:#D81D61"/>
			<stop  offset="1" style="stop-color:#D81D61;stop-opacity:0"/>
		</linearGradient>
		<path class="st27" d="M551,521.4l-2.6,33.6l12,30.2c3.9-7.7,8.9-13,14-16.5L551,521.4z"/>
		<linearGradient id="SVGID_17_" gradientUnits="userSpaceOnUse" x1="533.9783" y1="654.8751" x2="547.7017" y2="484.9657">
			<stop  offset="0" style="stop-color:#ED2E69"/>
			<stop  offset="1" style="stop-color:#FF5F81"/>
		</linearGradient>
		<path class="st28" d="M564.9,673.4l-27.7-3.7l-21.1-196.1l23.1,7.6c2.3,0.7,4.4,1.8,6.3,3.3c1.8,12.2,6.3,42.7,10.4,67.6
			c1.2,7.5,2.4,18.3,3.4,30.3C562.7,621.2,564.9,673.4,564.9,673.4z"/>
		<g>
			<path class="st23" d="M559.7,587.5c-0.4,0-0.7-0.3-0.8-0.7c-0.1-1.5-0.2-2.9-0.4-4.4c-1.2-13.2-2.3-23.4-3.4-30.3
				c-1.6-9.9-3.5-21.8-5.5-35.2c-0.1-0.4,0.2-0.8,0.6-0.9c0.4-0.1,0.8,0.2,0.9,0.6c2.1,13.5,3.9,25.3,5.5,35.2
				c1.1,6.9,2.3,17.1,3.5,30.4c0.1,1.4,0.2,2.9,0.4,4.4C560.5,587.1,560.2,587.5,559.7,587.5C559.7,587.5,559.7,587.5,559.7,587.5z"
				/>
		</g>
		<path class="st29" d="M522.4,486.9l10.9,6.7c0,0-4.9-15.9-18-23C503.3,464.1,522.4,486.9,522.4,486.9z"/>
		<linearGradient id="SVGID_18_" gradientUnits="userSpaceOnUse" x1="517.3132" y1="650.7676" x2="506.8572" y2="500.4632">
			<stop  offset="0" style="stop-color:#DBF3F7"/>
			<stop  offset="1" style="stop-color:#FFFFFF"/>
		</linearGradient>
		<path class="st30" d="M516.2,473.6c0,0,13.9,21.9,22.7,79.7c6.7,44.1,7.2,85.8,7,103c0,4.7-3.8,8.5-8.4,8.8l-49.2,2.2l-8.4-191.6
			L516.2,473.6z"/>
		<linearGradient id="SVGID_19_" gradientUnits="userSpaceOnUse" x1="442.3511" y1="499.6884" x2="501.1659" y2="370.2959">
			<stop  offset="0" style="stop-color:#0E1935"/>
			<stop  offset="1" style="stop-color:#2B3E60"/>
		</linearGradient>
		<path class="st31" d="M475.1,455c0,0-9-10.6-14.9-16.8c-5.9-6.2-8.5-10-8.3-16c0.2-6,1.6-11,0-12.1c-1.6-1.1-7.9,0.5-8.6-2
			c-0.7-2.5,11.4-2,14.9-8.5c3.5-6.5,11-20.3,25.6-21.6c14.6-1.3,28.3-1.7,31.8-3.6c3.5-2,10.5-3.6,13.1,6.3s1.1,25.3-9.1,31.7
			C509.3,418.7,475.1,455,475.1,455z"/>
		<path class="st32" d="M519.5,412.3c5.1-3.2,8-8.6,9.3-14.5c-0.1,0-13.2,11.6-43.6,14.7c-19.7,2-28.7,1.3-32.7,0.6
			c-0.1,2.3-0.6,5.5-0.7,9c-0.2,6,2.5,9.8,8.3,16c5.9,6.2,14.9,16.8,14.9,16.8S509.3,418.7,519.5,412.3z"/>
		<linearGradient id="SVGID_20_" gradientUnits="userSpaceOnUse" x1="493.6569" y1="451.1459" x2="486.7952" y2="548.1904">
			<stop  offset="0" style="stop-color:#FFC0AC"/>
			<stop  offset="1" style="stop-color:#FFD6C7"/>
		</linearGradient>
		<path class="st33" d="M470.4,438.9l9.4,36.9c0,0,7.4,7.9,18.2,9.2c10.9,1.3,17.3-5.2,18.2-11.4l-5.2-19.2L470.4,438.9z"/>
		<linearGradient id="SVGID_21_" gradientUnits="userSpaceOnUse" x1="496.9271" y1="436.8454" x2="474.3814" y2="557.4158">
			<stop  offset="0" style="stop-color:#F7826B"/>
			<stop  offset="1" style="stop-color:#F7826B;stop-opacity:0"/>
		</linearGradient>
		<path class="st34" d="M470.4,438.9l2,7.8c3.1,5.2,9.8,14.8,19.2,20.3c13.3,7.8,24.6,6.6,24.6,6.6l-5.2-19.2L470.4,438.9z"/>
		<linearGradient id="SVGID_22_" gradientUnits="userSpaceOnUse" x1="468.6469" y1="533.6613" x2="496.584" y2="427.3045">
			<stop  offset="0" style="stop-color:#FFC0AC"/>
			<stop  offset="1" style="stop-color:#FFD6C7"/>
		</linearGradient>
		<path class="st35" d="M470.4,438.9c0,0-7.5-0.7-8.5-5.6s4.5-7.7,8-5.5c3.6,2.2,4.5,7.7,7,7.3c2.5-0.4-0.7-6.9-0.2-8.8
			s3.4-2.9,4.7-6.4c1.3-3.5,0.9-6.7,2-7.4s5.9,2,16.7,2.2c10.8,0.2,19.4-2.3,19.4-2.3s4,17,5.3,26.6s-1.2,19-11,20.9
			c-9.8,2-23.2-1.4-31.6-8.1C473.8,445,470.4,438.9,470.4,438.9z"/>
		<g>
			<path class="st36" d="M514,442.9c-0.2,0-0.4-0.1-0.6-0.3c-0.3-0.3-0.2-0.8,0.1-1.1l2.4-2c0.6-0.5,0.8-1.4,0.4-2.1l-8.7-15.3
				c-0.2-0.4-0.1-0.8,0.3-1c0.4-0.2,0.8-0.1,1,0.3l8.7,15.3c0.8,1.3,0.5,3-0.7,4l-2.4,2C514.3,442.9,514.1,442.9,514,442.9z"/>
		</g>
		<g>
			<path class="st32" d="M495.4,421c-0.1,0-0.3,0-0.4-0.1c-0.4-0.2-0.5-0.7-0.3-1c0.1-0.1,1.4-2.4,4.2-2.6c2.8-0.2,3.9,1,4,1.1
				c0.3,0.3,0.2,0.8-0.1,1.1c-0.3,0.3-0.8,0.2-1.1-0.1c0-0.1-0.7-0.7-2.7-0.6c-2.1,0.1-3,1.8-3,1.8C495.9,420.8,495.6,421,495.4,421
				z"/>
		</g>
		<g>
			<path class="st32" d="M510.9,419.5c-0.1,0-0.2,0-0.3-0.1c-0.4-0.2-0.6-0.6-0.4-1c0-0.1,1.2-2.7,3.9-2.7c2.6,0,3.8,1.6,3.9,1.7
				c0.3,0.3,0.2,0.8-0.2,1.1c-0.3,0.3-0.8,0.2-1.1-0.2c0,0-0.8-1-2.7-1c-1.7,0-2.5,1.7-2.5,1.8C511.5,419.3,511.2,419.5,510.9,419.5
				z"/>
		</g>
		<g>
			<circle class="st32" cx="499.9" cy="425.4" r="2.4"/>
		</g>
		<g>
			<circle class="st32" cx="515.6" cy="423.7" r="2.4"/>
		</g>
		<g>
			<path class="st36" d="M506.5,448.1c-4.5,0-5.5-3.8-5.5-3.9c-0.1-0.4,0.1-0.8,0.6-0.9c0.4-0.1,0.8,0.1,0.9,0.6
				c0.1,0.4,1.1,3.6,5.8,2.5c0.4-0.1,0.8,0.2,0.9,0.6c0.1,0.4-0.2,0.8-0.6,0.9C507.9,448,507.2,448.1,506.5,448.1z"/>
		</g>
		<linearGradient id="SVGID_23_" gradientUnits="userSpaceOnUse" x1="468.5292" y1="605.3506" x2="504.4716" y2="513.8609">
			<stop  offset="0" style="stop-color:#ED2E69"/>
			<stop  offset="1" style="stop-color:#FF5F81"/>
		</linearGradient>
		<path class="st37" d="M479.8,475.8l12.3,14.5c0,0,11.8,35.3,16,67c4.2,31.7,2.6,91.8-3.3,112.4h-58.5c0,0,3.3-50.2,1.3-82.9
			c-2-32.8-7.9-65.1-7.9-65.1l36.4-44.2L479.8,475.8z"/>
		<linearGradient id="SVGID_24_" gradientUnits="userSpaceOnUse" x1="499.0237" y1="572.4415" x2="413.7423" y2="606.4234">
			<stop  offset="8.100558e-02" style="stop-color:#D81D61"/>
			<stop  offset="1" style="stop-color:#D81D61;stop-opacity:0"/>
		</linearGradient>
		<path class="st38" d="M510.2,585l-31.8-53.6l-29.5,5.5c0,0,11.3,23.9,16.4,52.6c5.1,28.7,6.2,40.6,31,36.7
			c1.5-0.2,12.3-2.3,13.8-2.4C511.4,606.8,510.9,603,510.2,585z"/>
		<linearGradient id="SVGID_25_" gradientUnits="userSpaceOnUse" x1="639.3307" y1="608.6833" x2="646.9277" y2="587.6081">
			<stop  offset="0" style="stop-color:#FFC0AC"/>
			<stop  offset="1" style="stop-color:#FFD6C7"/>
		</linearGradient>
		<path class="st39" d="M629.2,591.1c0,0,12.7,0.9,18.8,0.5c6.1-0.4,12.9-0.8,13.5-0.9c0.6-0.1,1,3.7-3.7,5
			C653.1,596.8,636.1,594.9,629.2,591.1z"/>
		<linearGradient id="SVGID_26_" gradientUnits="userSpaceOnUse" x1="616.188" y1="619.6592" x2="632.9748" y2="591.5996">
			<stop  offset="0" style="stop-color:#FFC0AC"/>
			<stop  offset="1" style="stop-color:#FFD6C7"/>
		</linearGradient>
		<path class="st40" d="M607.7,586c0,0,6.7,0.7,12.4,2.7c5.8,2,23.4,5.7,29,6.1c5.6,0.4,9.2-0.2,9.6,0c0.4,0.2,0.6,2.5-2.5,3.5
			s-17.5,1-17.5,1S614.2,599,607.7,586z"/>
		<linearGradient id="SVGID_27_" gradientUnits="userSpaceOnUse" x1="615.5709" y1="588.8922" x2="632.2143" y2="605.5357">
			<stop  offset="0" style="stop-color:#FFC0AC"/>
			<stop  offset="1" style="stop-color:#FFD6C7"/>
		</linearGradient>
		<path class="st41" d="M621,601.6c0,0,7.4,1.5,10.7,2.9c3.2,1.5,4.7,1.3,4.6-0.5c-0.1-1.8-2.5-5.3-7.1-6.1S621,601.6,621,601.6z"/>
		<path class="st23" d="M479.3,586.8c0,0,4.7,4.9,18.8-0.6c14.1-5.6,12-19.9,12-19.9s-6.7-3.2-17.2,0.5c-10.5,3.7-10.5,3.7-10.5,3.7
			L479.3,586.8z"/>
		<linearGradient id="SVGID_28_" gradientUnits="userSpaceOnUse" x1="456.2765" y1="655.8727" x2="475.8814" y2="519.2916">
			<stop  offset="0" style="stop-color:#ED2E69"/>
			<stop  offset="1" style="stop-color:#FF5F81"/>
		</linearGradient>
		<path class="st42" d="M479.8,475.8l-29.9,13.4c-12.4,5.6-17.2,20.8-10.1,32.4l39.5,65.1c0,0,6.3-12.5,30.8-20.5
			c0,0-30.7-67.5-32.8-73.7C475.1,486.4,475.8,478.2,479.8,475.8z"/>
		<g>
			<defs>
				<path id="SVGID_29_" d="M560.4,585.2l-1.1-2.8c3.4,38.9,5.6,91,5.6,91l-27.7-3.7l-21.1-196.1l7.6,2.5l15.4,5.1
					c0.3,0.1,0.6,0.2,1,0.4c0.2,0.1,0.5,0.2,0.7,0.3c0.3,0.1,0.5,0.3,0.8,0.4c0.3,0.1,0.6,0.3,0.9,0.4c0.3,0.1,0.6,0.3,0.8,0.5
					c0.2,0.1,0.5,0.3,0.7,0.4c0.4,0.3,0.8,0.5,1.2,0.8c0.1,0,0.1,0.1,0.2,0.1c0,0,0,0,0,0c2.2,1.6,4.1,3.6,5.5,6l44.5,71
					C595.6,561.4,572.4,561.4,560.4,585.2z M510.1,566.3c0,0-0.4-1-1.2-2.7c-0.2-2.2-0.5-4.3-0.7-6.3c-4.2-31.7-16-67-16-67
					l-12.3-14.5l-29.9,13.4c-12.4,5.6-17.2,20.8-10.1,32.4c0,0,6,32.4,7.9,65.1c2,32.8-1.3,82.9-1.3,82.9h58.5
					c5.3-18.7,7.2-70.1,4.3-103.1C509.5,566.5,509.8,566.4,510.1,566.3z"/>
			</defs>
			<clipPath id="SVGID_30_">
				<use xlink:href="#SVGID_29_"  style="overflow:visible;"/>
			</clipPath>
			<g class="st43">
				<g>
					<circle class="st17" cx="424.3" cy="500.8" r="3"/>
					<circle class="st17" cx="453.8" cy="497.7" r="3"/>
					<circle class="st17" cx="483.3" cy="494.6" r="3"/>
					<circle class="st17" cx="512.8" cy="491.5" r="3"/>
					<circle class="st17" cx="542.3" cy="488.3" r="3"/>
					<circle class="st17" cx="571.8" cy="485.2" r="3"/>
					<circle class="st17" cx="601.3" cy="482.1" r="3"/>
				</g>
				<g>
					<circle class="st17" cx="427.4" cy="530.3" r="3"/>
					<circle class="st17" cx="456.9" cy="527.2" r="3"/>
					<circle class="st17" cx="486.4" cy="524.1" r="3"/>
					<circle class="st17" cx="515.9" cy="520.9" r="3"/>
					<circle class="st17" cx="545.4" cy="517.8" r="3"/>
					<circle class="st17" cx="574.9" cy="514.7" r="3"/>
					<circle class="st17" cx="604.4" cy="511.6" r="3"/>
				</g>
				<g>
					<circle class="st17" cx="430.5" cy="559.8" r="3"/>
					<circle class="st17" cx="460" cy="556.7" r="3"/>
					<circle class="st17" cx="489.5" cy="553.6" r="3"/>
					<circle class="st17" cx="519" cy="550.4" r="3"/>
					<circle class="st17" cx="548.5" cy="547.3" r="3"/>
					<circle class="st17" cx="578" cy="544.2" r="3"/>
					<circle class="st17" cx="607.5" cy="541.1" r="3"/>
				</g>
				<g>
					<circle class="st17" cx="433.7" cy="589.3" r="3"/>
					<circle class="st17" cx="463.2" cy="586.2" r="3"/>
					<circle class="st17" cx="492.6" cy="583.1" r="3"/>
					<circle class="st17" cx="522.1" cy="579.9" r="3"/>
					<circle class="st17" cx="551.6" cy="576.8" r="3"/>
					<circle class="st17" cx="581.1" cy="573.7" r="3"/>
					<circle class="st17" cx="610.6" cy="570.6" r="3"/>
				</g>
				<g>
					<circle class="st17" cx="436.8" cy="618.8" r="3"/>
					<circle class="st17" cx="466.3" cy="615.7" r="3"/>
					<circle class="st17" cx="495.8" cy="612.5" r="3"/>
					<circle class="st17" cx="525.3" cy="609.4" r="3"/>
					<circle class="st17" cx="554.8" cy="606.3" r="3"/>
					<circle class="st17" cx="584.2" cy="603.2" r="3"/>
					<circle class="st17" cx="613.7" cy="600.1" r="3"/>
				</g>
				<g>
					<circle class="st17" cx="439.9" cy="648.3" r="3"/>
					<circle class="st17" cx="469.4" cy="645.2" r="3"/>
					<circle class="st17" cx="498.9" cy="642" r="3"/>
					<circle class="st17" cx="528.4" cy="638.9" r="3"/>
					<circle class="st17" cx="557.9" cy="635.8" r="3"/>
					<circle class="st17" cx="587.4" cy="632.7" r="3"/>
					<circle class="st17" cx="616.9" cy="629.6" r="3"/>
				</g>
				<g>
					<circle class="st17" cx="443" cy="677.8" r="3"/>
					<circle class="st17" cx="472.5" cy="674.7" r="3"/>
					<circle class="st17" cx="502" cy="671.5" r="3"/>
					<circle class="st17" cx="531.5" cy="668.4" r="3"/>
					<circle class="st17" cx="561" cy="665.3" r="3"/>
					<circle class="st17" cx="590.5" cy="662.2" r="3"/>
					<circle class="st17" cx="620" cy="659" r="3"/>
				</g>
			</g>
		</g>
		<linearGradient id="SVGID_31_" gradientUnits="userSpaceOnUse" x1="576.8079" y1="750.9451" x2="602.7844" y2="630.8649">
			<stop  offset="0" style="stop-color:#0891F9"/>
			<stop  offset="1" style="stop-color:#62BFF9"/>
		</linearGradient>
		<polygon class="st44" points="680.9,651.6 536.8,722.3 512.9,664.9 541.7,663.8 		"/>
		<path class="st45" d="M650.7,665.6c0,0-29.2,10.5-63.7,12.4c-34.6,2-74.1-13.2-74.1-13.2l-3.2,37.7L621.9,714
			C621.9,714,689,683.3,650.7,665.6z"/>
		<linearGradient id="SVGID_32_" gradientUnits="userSpaceOnUse" x1="493.3785" y1="693.9645" x2="567.871" y2="588.5968">
			<stop  offset="0" style="stop-color:#FFC0AC"/>
			<stop  offset="1" style="stop-color:#FFD6C7"/>
		</linearGradient>
		<path class="st46" d="M648.2,601.6c-1.2,0.7-4.5,0.6-9.9-0.2c-5.3-0.9-11.5-0.4-20,0.5c-8.5,1-15.8-1.7-15.8-1.7L505,610.9
			c-5.2,0.6-10.3-2.1-12.8-6.8l-10.8-20.4c3.3-4,10.9-11.1,26.2-16.6l6.1,14.9l93,3.8c1.4,0.1,2.7,0.4,4,0.9
			c5,2.1,18.1,7.7,20.8,8.5c3.3,1.1,17.4,4.1,17.9,4.2C649.9,599.6,649.4,600.9,648.2,601.6z"/>
		<g>
			<path class="st47" d="M649.3,600.1C649.3,600.1,649.3,600.1,649.3,600.1c-0.6-0.1-14.7-3.1-18.1-4.2c-0.3-0.1-0.5-0.4-0.4-0.7
				c0.1-0.3,0.4-0.5,0.7-0.4c3.3,1.1,17.2,4.1,17.8,4.2c0.3,0,0.5,0.3,0.5,0.7C649.9,599.9,649.6,600.1,649.3,600.1z"/>
		</g>
		<linearGradient id="SVGID_33_" gradientUnits="userSpaceOnUse" x1="475.939" y1="570.6423" x2="556.0745" y2="601.0095">
			<stop  offset="0" style="stop-color:#F7826B"/>
			<stop  offset="1" style="stop-color:#F7826B;stop-opacity:0"/>
		</linearGradient>
		<path class="st48" d="M509.7,572.2l-2.1-5.1c-15.3,5.5-22.9,12.6-26.2,16.6l3,5.6C492.3,582,504.1,575.2,509.7,572.2z"/>
		<path class="st29" d="M492.1,490.3l-9.1,11.4l-8.2-22.6l-0.3-0.9c0,0,0.7-2.8,2.6-5.5l2.7,3.1v0L492.1,490.3z"/>
		<path class="st23" d="M477.1,472.7l2.7,3.1l0,0l-1.2-4.8C478,471.6,477.6,472.1,477.1,472.7z"/>
		<linearGradient id="SVGID_34_" gradientUnits="userSpaceOnUse" x1="536.7972" y1="712.4404" x2="449.882" y2="727.7976">
			<stop  offset="0" style="stop-color:#0891F9"/>
			<stop  offset="1" style="stop-color:#62BFF9"/>
		</linearGradient>
		<path class="st49" d="M583.3,735.7c-8.6,1.5-20.2,3.3-33.3,4.8c-28.2,3.2-88.2-12-100.2-38.5c-0.8-1.7-1.5-3.5-2-5.3L583.3,735.7z
			"/>
		<linearGradient id="SVGID_35_" gradientUnits="userSpaceOnUse" x1="537.4967" y1="761.3897" x2="467.2457" y2="709.7634">
			<stop  offset="0" style="stop-color:#0E1935"/>
			<stop  offset="1" style="stop-color:#2B3E60"/>
		</linearGradient>
		<path class="st50" d="M542.9,746.6c0,0,2.6,4.6-4.1,7s-28.4,3.3-38.3,1.6c-9.9-1.7-22.2-8.5-26.6-15.5c-4.3-7-4-19.4,3.9-18.4
			c7.9,1.1,16.4,5.7,30.1,5.5s19.1-2.5,20.7,2.1S542.9,746.6,542.9,746.6z"/>
		<path class="st32" d="M528.7,728.9c-1.6-4.6-6.9-2.4-20.7-2.1c-0.9,0-1.8,0-2.7,0c0.9,4.7-0.9,12.3-3.5,17.2
			c-2.6,4.9-12.3,4.8-19.5,3.7c5.4,3.6,12.2,6.5,18.1,7.5c9.9,1.7,31.6,0.8,38.3-1.6c6.7-2.5,4.1-7,4.1-7S530.2,733.5,528.7,728.9z"
			/>
		<linearGradient id="SVGID_36_" gradientUnits="userSpaceOnUse" x1="527.4865" y1="762.139" x2="540.9648" y2="732.7316">
			<stop  offset="0" style="stop-color:#FFC0AC"/>
			<stop  offset="1" style="stop-color:#FFD6C7"/>
		</linearGradient>
		<path class="st51" d="M538.9,724.4l-10.7,3.9c-1,0.4-1.8,1.1-2.1,2.1c-0.8,2.6-2,7.7,0.6,11.9c3.6,5.9,8.6,6.5,8.6,6.5l16.1-4.1
			L538.9,724.4z"/>
		<linearGradient id="SVGID_37_" gradientUnits="userSpaceOnUse" x1="530.8054" y1="759.9305" x2="551.1456" y2="713.6139">
			<stop  offset="0" style="stop-color:#F7826B"/>
			<stop  offset="1" style="stop-color:#F7826B;stop-opacity:0"/>
		</linearGradient>
		<path class="st52" d="M541.1,747.4l10.2-2.6l-12.5-20.4l-7.7,2.8C532.4,731.6,535.3,740.5,541.1,747.4z"/>
		<linearGradient id="SVGID_38_" gradientUnits="userSpaceOnUse" x1="629.7944" y1="745.954" x2="622.6059" y2="672.1087">
			<stop  offset="0" style="stop-color:#0891F9"/>
			<stop  offset="1" style="stop-color:#62BFF9"/>
		</linearGradient>
		<path class="st53" d="M713.2,672.1c-2.1-13-13.9-22.1-27-21l-5.3,0.5l-144,70.7c2.7,15.9,13.5,27.1,13.5,27.1L696.4,700
			C708.1,696.1,715.2,684.3,713.2,672.1z"/>
		<polygon class="st45" points="598.3,693 594.3,694.1 545.1,718.3 555.9,745.2 559.7,746.2 653.4,714.6 		"/>
		<g>
			<path class="st54" d="M584.9,699.5c-0.3,0-0.6-0.2-0.7-0.4c-0.2-0.4,0-0.8,0.3-1l66.1-32.5c0.4-0.2,0.8,0,1,0.3
				c0.2,0.4,0,0.8-0.3,1l-66.1,32.5C585.2,699.5,585,699.5,584.9,699.5z"/>
		</g>
		<path class="st55" d="M549.6,716.1l-12.7,6.2c2.7,15.9,13.5,27.1,13.5,27.1l14.8-5C555.2,735.9,551.1,722.8,549.6,716.1z"/>
		<linearGradient id="SVGID_39_" gradientUnits="userSpaceOnUse" x1="619.7148" y1="801.9877" x2="653.0432" y2="726.0186">
			<stop  offset="0" style="stop-color:#0E1935"/>
			<stop  offset="1" style="stop-color:#2B3E60"/>
		</linearGradient>
		<path class="st56" d="M614.5,739c0,0-1,5.5,7.4,7.5s31.2,3.9,46.1-3.3c14.9-7.2,19.8-16.6,18.3-24.9c-1.3-6.9-5.2-6.7-16-3.3
			c-10.8,3.4-32.4,3.8-36.3,3.3c-3.8-0.5-6,2.6-5.9,4.7C628.1,725.1,614.5,739,614.5,739z"/>
		<path class="st32" d="M662.5,742.5c-32.7,5.4-34.1-12-34.1-12c-2.2,0-4.2,0.1-6.2,0.3c-3.7,4.1-7.7,8.2-7.7,8.2s-1,5.5,7.4,7.5
			c8.4,2,31.2,3.9,46.1-3.3c1.9-0.9,3.6-1.9,5.2-2.8C670,741.2,666.4,741.9,662.5,742.5z"/>
		<path class="st54" d="M609.4,743.2c0,0,7.8-2.2,11.7-10.4c3.9-8.1,0.7-18.9,0.7-18.9s-8.7,0.3-12.4,7.5
			C605.7,728.6,609.4,743.2,609.4,743.2z"/>
		<linearGradient id="SVGID_40_" gradientUnits="userSpaceOnUse" x1="642.6899" y1="763.5667" x2="617.5302" y2="732.5255">
			<stop  offset="0" style="stop-color:#FFC0AC"/>
			<stop  offset="1" style="stop-color:#FFD6C7"/>
		</linearGradient>
		<path class="st57" d="M615.2,714.6l16.8,7.2c0,0,4.7,12.8-9.5,19.1l-26.3-6.2L615.2,714.6z"/>
		<linearGradient id="SVGID_41_" gradientUnits="userSpaceOnUse" x1="583.0123" y1="718.5135" x2="665.8432" y2="741.0592">
			<stop  offset="0" style="stop-color:#F7826B"/>
			<stop  offset="1" style="stop-color:#F7826B;stop-opacity:0"/>
		</linearGradient>
		<path class="st58" d="M617.3,739.7c0.8-8.8,4.4-16.8,6.9-21.2l-9-3.9l-19,20.1L617.3,739.7z"/>
		<linearGradient id="SVGID_42_" gradientUnits="userSpaceOnUse" x1="603.2014" y1="855.0973" x2="544.3866" y2="726.3582">
			<stop  offset="0" style="stop-color:#0891F9"/>
			<stop  offset="1" style="stop-color:#62BFF9"/>
		</linearGradient>
		<path class="st59" d="M621.9,714c0,0-10.6,8.7-12.4,29.2l-26.1-7.5l-135.6-39c-2-6.2-2.9-12.9-3.1-19.4
			c-0.6-20.2,20.3-34,38.8-25.7L621.9,714z"/>
		<g>
			<path class="st54" d="M538.2,723.5c-0.1,0-0.1,0-0.2,0l-76.2-21.9c-0.4-0.1-0.6-0.5-0.5-0.9c0.1-0.4,0.5-0.6,0.9-0.5l76.2,21.9
				c0.4,0.1,0.6,0.5,0.5,0.9C538.9,723.3,538.6,723.5,538.2,723.5z"/>
		</g>
		<path class="st55" d="M593.6,738.6l15.9,4.6c1.8-20.6,12.4-29.2,12.4-29.2l-14.6-6.6C602.8,711.2,594.1,720.9,593.6,738.6z"/>
		<g>
			<path class="st17" d="M669.4,733.6C669.4,733.6,669.4,733.6,669.4,733.6c-0.4,0-0.8-0.4-0.8-0.8c0.2-7.6-3.5-10.8-3.6-10.8
				c-0.3-0.3-0.4-0.7-0.1-1.1c0.3-0.3,0.7-0.4,1.1-0.1c0.2,0.1,4.3,3.6,4.1,12C670.2,733.3,669.9,733.6,669.4,733.6z"/>
		</g>
		<g>
			<path class="st17" d="M663.4,734.5C663.4,734.5,663.4,734.5,663.4,734.5c-0.4,0-0.8-0.4-0.8-0.8c0.2-7.6-3.5-10.8-3.6-10.8
				c-0.3-0.3-0.4-0.7-0.1-1.1c0.3-0.3,0.7-0.4,1.1-0.1c0.2,0.1,4.3,3.6,4.1,12C664.2,734.2,663.8,734.5,663.4,734.5z"/>
		</g>
		<g>
			<path class="st17" d="M657.4,735.4C657.4,735.4,657.4,735.4,657.4,735.4c-0.4,0-0.8-0.4-0.8-0.8c0.2-7.6-3.5-10.8-3.6-10.8
				c-0.3-0.3-0.4-0.7-0.1-1.1c0.3-0.3,0.7-0.4,1.1-0.1c0.2,0.1,4.3,3.6,4.1,12C658.1,735.1,657.8,735.4,657.4,735.4z"/>
		</g>
		<g>
			<path class="st17" d="M485.9,742.2c-0.4,0-0.8-0.3-0.8-0.7c-0.2-8.4,4-11.9,4.1-12c0.3-0.3,0.8-0.2,1.1,0.1
				c0.3,0.3,0.2,0.8-0.1,1.1c-0.1,0.1-3.7,3.2-3.6,10.8C486.7,741.9,486.3,742.2,485.9,742.2C485.9,742.2,485.9,742.2,485.9,742.2z"
				/>
		</g>
		<g>
			<path class="st17" d="M491.9,743.1c-0.4,0-0.8-0.3-0.8-0.7c-0.2-8.4,4-11.9,4.1-12c0.3-0.3,0.8-0.2,1.1,0.1
				c0.3,0.3,0.2,0.8-0.1,1.1c-0.1,0-3.7,3.2-3.6,10.8C492.7,742.8,492.4,743.1,491.9,743.1C491.9,743.1,491.9,743.1,491.9,743.1z"/>
		</g>
		<g>
			<path class="st17" d="M498,744c-0.4,0-0.8-0.3-0.8-0.7c-0.2-8.4,4-11.9,4.1-12c0.3-0.3,0.8-0.2,1.1,0.1c0.3,0.3,0.2,0.8-0.1,1.1
				c-0.1,0-3.7,3.2-3.6,10.8C498.7,743.7,498.4,744,498,744C498,744,498,744,498,744z"/>
		</g>
		<g>
			<path class="st23" d="M510.1,567c-0.3,0-0.6-0.2-0.7-0.4L484,510.1c-0.2-0.4,0-0.8,0.4-1c0.4-0.2,0.8,0,1,0.4l25.5,56.4
				c0.2,0.4,0,0.8-0.4,1C510.3,567,510.2,567,510.1,567z"/>
		</g>
	</g>
	<g>
		<path class="st32" d="M697.4,756.1L697.4,756.1c-1.2,0-2.2-1.1-2-2.3l19.5-138.3h7.1l-22.6,138.9
			C699.3,755.4,698.4,756.1,697.4,756.1z"/>
		<path class="st32" d="M795.6,756.1L795.6,756.1c1.2,0,2.2-1.1,2-2.3l-19.5-138.3H771l22.6,138.9
			C793.8,755.4,794.6,756.1,795.6,756.1z"/>
		<path class="st32" d="M782.3,615.5H519.8c-1.7,0-3.1-1.4-3.1-3.1l0,0c0-1.7,1.4-3.1,3.1-3.1h262.5c1.7,0,3.1,1.4,3.1,3.1l0,0
			C785.4,614.1,784,615.5,782.3,615.5z"/>
		<path class="st60" d="M593.6,612.4c0-1.7-1.4-3.1-3.1-3.1h-70.7c-1.7,0-3.1,1.4-3.1,3.1c0,1.7,1.4,3.1,3.1,3.1h70.7
			C592.2,615.5,593.6,614.1,593.6,612.4z"/>
		<path class="st60" d="M506.7,756.1L506.7,756.1c-1.2,0-2.2-1.1-2-2.3l19.5-138.3h7.1l-22.6,138.9
			C508.5,755.4,507.7,756.1,506.7,756.1z"/>
		<path class="st60" d="M604.9,756.1L604.9,756.1c1.2,0,2.2-1.1,2-2.3l-19.5-138.3h-7.1l22.6,138.9
			C603,755.4,603.9,756.1,604.9,756.1z"/>
	</g>
	<g>
		<path class="st10" d="M659.3,609.3h-67.8c-2.5,0-4.5-2-4.5-4.5l0,0c0-0.7,0.6-1.3,1.3-1.3h70.9V609.3z"/>
		<linearGradient id="SVGID_43_" gradientUnits="userSpaceOnUse" x1="735.7521" y1="673.4163" x2="723.4608" y2="534.47">
			<stop  offset="0" style="stop-color:#DBF3F7"/>
			<stop  offset="1" style="stop-color:#FFFFFF"/>
		</linearGradient>
		<path class="st61" d="M761.4,609.3h-107l31.3-76.1c1.2-2.9,4-4.8,7.2-4.8h102.2c2.7,0,4.6,2.8,3.5,5.3l-28.7,69.9
			C768.5,607.1,765.1,609.3,761.4,609.3z"/>
		<path class="st62" d="M795.1,528.4h-56.7v17.2c0,7.5,2.2,15,6.7,21.1c2,2.8,4.5,5.4,7.7,7.5c11.6,7.7,15,8.2,17.1,9.7
			c1.6-1.2,4-1.7,10.4-5.5l18.4-44.8C799.7,531.2,797.8,528.4,795.1,528.4z"/>
		
			<ellipse transform="matrix(0.3854 -0.9227 0.9227 0.3854 -76.5369 1025.9506)" class="st60" cx="731.9" cy="570.4" rx="6.9" ry="4.2"/>
	</g>
	<g>
		<g>
			<linearGradient id="SVGID_44_" gradientUnits="userSpaceOnUse" x1="780.5894" y1="613.5025" x2="780.5894" y2="536.2809">
				<stop  offset="0" style="stop-color:#ED2E69"/>
				<stop  offset="1" style="stop-color:#FF5F81"/>
			</linearGradient>
			<path class="st63" d="M812.1,500.3v34.6c0,7.5-2.2,15-6.7,21.1c-2,2.8-4.5,5.4-7.7,7.5c-11.6,7.7-15,8.2-17.1,9.7
				c-2.1-1.5-5.4-2-17.1-9.7c-3.2-2.1-5.7-4.8-7.7-7.5c-4.4-6.1-6.7-13.6-6.7-21.1v-34.6c18.4,4,31.5-5.3,31.5-5.3
				S793.7,504.3,812.1,500.3z"/>
			<path class="st64" d="M802.8,505.2c-10.5,0-18.5-3.6-22.2-5.7c-3.7,2.1-11.7,5.7-22.2,5.7c-1.8,0-3.5-0.1-5.3-0.3v30
				c0,6.9,2,13.4,5.9,18.8c1.9,2.7,4.2,4.9,6.7,6.6c7.6,5,11.5,6.8,13.8,7.9c0.4,0.2,0.7,0.3,1.1,0.5c0.3-0.2,0.7-0.3,1.1-0.5
				c2.4-1.1,6.3-2.9,13.8-7.9c2.5-1.7,4.8-3.9,6.7-6.6c3.9-5.4,5.9-11.9,5.9-18.8v-30C806.4,505.1,804.6,505.2,802.8,505.2z
				 M804.6,534.9c0,6.2-1.8,12-5.3,16.8c-1.7,2.4-3.6,4.3-5.8,5.7c-6.9,4.6-10.7,6.4-13,7.5c-2.3-1.1-6.1-2.9-13-7.5
				c-2.1-1.4-4.1-3.3-5.8-5.7c-3.4-4.8-5.3-10.6-5.3-16.8v-26.2c0.6,0,1.2,0,1.8,0c9.9,0,17.7-2.9,22.2-5.2
				c4.5,2.3,12.3,5.2,22.2,5.2c0.6,0,1.2,0,1.8,0V534.9z"/>
		</g>
		<g>
			<path class="st64" d="M789.6,547.9h-18c-1,0-1.9-0.9-1.9-1.9v-17.3c0-1,0.9-1.9,1.9-1.9h18c1,0,1.9,0.9,1.9,1.9V546
				C791.5,547,790.6,547.9,789.6,547.9z"/>
			<path class="st17" d="M783,535.1c0-1.3-1.1-2.4-2.5-2.4c-1.2,0-2.2,1-2.3,2.3c-0.1,1.1,0.6,2.1,1.6,2.4v2.7
				c0,0.4,0.3,0.7,0.7,0.7l0,0c0.4,0,0.7-0.3,0.7-0.7v-2.7C782.3,537,783,536.1,783,535.1z"/>
			<path class="st64" d="M772.9,519.5v7.2h1.8v-7.2c0-3.3,2.7-6,6-6l0,0c3.3,0,6,2.7,6,6v7.2h1.8v-7.2c0-4.3-3.5-7.7-7.7-7.7h0
				C776.3,511.8,772.9,515.3,772.9,519.5z"/>
		</g>
	</g>
</g>
<g id="Man_Upload">
	<linearGradient id="SVGID_45_" gradientUnits="userSpaceOnUse" x1="1052.7463" y1="673.6945" x2="939.0377" y2="618.1472">
		<stop  offset="0" style="stop-color:#6B637C"/>
		<stop  offset="1" style="stop-color:#8A8593"/>
	</linearGradient>
	<path class="st65" d="M1124.9,709.4l-48.8,4.4l-18.4-8.6c0,0-12.7-9.3-46.1-19.6c-33.3-10.3-55.7-22.9-64.9-31.8l115.3-11.4
		L1124.9,709.4z"/>
	<linearGradient id="SVGID_46_" gradientUnits="userSpaceOnUse" x1="1134.6749" y1="656.624" x2="957.2502" y2="717.7261">
		<stop  offset="0" style="stop-color:#000000"/>
		<stop  offset="1" style="stop-color:#000000;stop-opacity:0"/>
	</linearGradient>
	<path class="st66" d="M1112.8,696.6l-50.7-54.1l-31.7,3.1c10.7,9.1,28.4,32.3,5.4,34.6c-14.2,1.4-35.9-1.8-53-5
		c8.4,3.6,18,7.2,28.8,10.5c33.3,10.3,46.1,19.6,46.1,19.6l18.4,8.6l39.4-3.6L1112.8,696.6z"/>
	<g>
		<path class="st67" d="M1159.8,425.5c-2,0-4.6-0.5-7.7-2l0.5-1c9.7,4.5,13.2-0.6,13.3-0.8l1,0.6
			C1166.7,422.5,1164.7,425.5,1159.8,425.5z"/>
	</g>
	<path class="st68" d="M1146.7,399.3c0,0,10.7-2.6,17.8-1.3s10.5,9.1,8.8,17.2c-1.6,8.1-9.4,9.9-18.3,5.5
		C1146.1,416.3,1146.7,399.3,1146.7,399.3z"/>
	<linearGradient id="SVGID_47_" gradientUnits="userSpaceOnUse" x1="1117.3978" y1="462.6374" x2="1128.5072" y2="388.1386">
		<stop  offset="0.2654" style="stop-color:#291F3A"/>
		<stop  offset="1" style="stop-color:#3B3151"/>
	</linearGradient>
	<path class="st69" d="M1135.5,450.5c0,0,3.1-3.9,9.8-10.1c6.7-6.3,13.2-13.8,9.2-29.5c-3.9-15.7-20.5-21.2-26.7-21.8
		c0,0-5.5-10.3-15.1-10.4c-9.6-0.1-17.1,9-18.4,23.4c-1.3,14.3,0,17.7,0,17.7L1135.5,450.5z"/>
	<path class="st67" d="M1155.4,415.6c-0.2,0.2-0.3,0.3-0.5,0.5c-8.6,8.9-32.1,8.1-46.4-0.9c-10.1-6.3-12.6-15.1-13.1-19.7
		c-0.5,2-0.9,4.2-1.1,6.6c-1.3,14.3,0,17.7,0,17.7l41.2,30.7c0,0,3.1-3.9,9.8-10.1C1151.3,434.8,1157.1,428.1,1155.4,415.6z"/>
	<linearGradient id="SVGID_48_" gradientUnits="userSpaceOnUse" x1="1117.1682" y1="458.586" x2="1113.2472" y2="554.6502">
		<stop  offset="0" style="stop-color:#FFC0AC"/>
		<stop  offset="1" style="stop-color:#FFD6C7"/>
	</linearGradient>
	<polygon class="st70" points="1137.2,440.4 1134.3,476.6 1097.3,473.5 1101,446.8 	"/>
	<linearGradient id="SVGID_49_" gradientUnits="userSpaceOnUse" x1="1115.0731" y1="442.2352" x2="1127.3262" y2="525.5562">
		<stop  offset="0" style="stop-color:#F7826B"/>
		<stop  offset="1" style="stop-color:#F7826B;stop-opacity:0"/>
	</linearGradient>
	<path class="st71" d="M1136.7,445.8l0.4-5.5l-36.2,6.4l-3.7,26.7c0,0,12.1-0.7,26.2-11.3C1129.3,457.8,1133.6,451.6,1136.7,445.8z"
		/>
	<linearGradient id="SVGID_50_" gradientUnits="userSpaceOnUse" x1="1121.0408" y1="514.2554" x2="1113.689" y2="424.0727">
		<stop  offset="0" style="stop-color:#FFC0AC"/>
		<stop  offset="1" style="stop-color:#FFD6C7"/>
	</linearGradient>
	<path class="st72" d="M1137.2,440.4c0,0,5.8-2.1,6.6-6.9c0.7-4.8-4-6.5-6.8-4.1c-2.9,2.3-2.6,8.8-4.5,8.5s-0.9-3.4-4-6
		s-2.5-7.1-4.7-7.5c-2.2-0.4-10.2-2.1-16.8-6.7c-4.4-3.1-7.1-6.1-8.4-7.8c-0.5-0.6-1.4-0.5-1.7,0.2c-1.2,2.6-3.8,8-5.9,13.7
		c-2.9,7.8-6.2,20.8-4,28.9s11.2,12.5,25.6,7.6C1126.9,455.3,1137.2,440.4,1137.2,440.4z"/>
	<g>
		<path class="st36" d="M1097,446c-0.2,0-0.3-0.1-0.5-0.2l-2.6-2.1c-1.1-0.9-1.4-2.3-0.7-3.5l9-15.9c0.2-0.4,0.7-0.5,1-0.3
			c0.4,0.2,0.5,0.7,0.3,1l-9,15.9c-0.3,0.5-0.2,1.2,0.3,1.6l2.6,2.1c0.3,0.3,0.4,0.7,0.1,1.1C1097.4,445.9,1097.2,446,1097,446z"/>
	</g>
	<g>
		<path class="st73" d="M1101.9,450.9c-0.9,0-1.8-0.2-2.4-0.5c-0.4-0.2-0.6-0.6-0.4-1c0.2-0.4,0.6-0.6,1-0.4
			c0.1,0.1,3.2,1.3,4.6-1.2c0.2-0.4,0.7-0.5,1-0.3c0.4,0.2,0.5,0.7,0.3,1C1105,450.4,1103.4,450.9,1101.9,450.9z"/>
	</g>
	<g>
		<path class="st68" d="M1114.8,426.6c-0.3,0-0.6-0.2-0.7-0.4c0,0-0.8-1.6-2.3-1.9c-1.6-0.4-2.9,0.3-2.9,0.3c-0.4,0.2-0.8,0-1-0.3
			c-0.2-0.4,0-0.8,0.3-1c0.1,0,1.8-0.9,4-0.4c2.2,0.5,3.3,2.7,3.3,2.8c0.2,0.4,0,0.8-0.4,1C1115,426.6,1114.9,426.6,1114.8,426.6z"
			/>
	</g>
	<g>
		<path class="st68" d="M1100.8,421.7c-0.3,0-0.6-0.2-0.7-0.5l0,0c0,0-0.7-1.6-2-1.8c-1.5-0.3-2.4,0.3-2.4,0.3
			c-0.4,0.2-0.8,0.1-1-0.3c-0.2-0.4-0.1-0.8,0.3-1c0.1,0,1.4-0.8,3.4-0.5c2.2,0.4,3.1,2.6,3.1,2.7c0.2,0.4,0,0.8-0.4,1
			C1101,421.7,1100.9,421.7,1100.8,421.7z"/>
	</g>
	<g>
		<circle class="st68" cx="1110.4" cy="429.7" r="2.2"/>
	</g>
	<g>
		<circle class="st68" cx="1096.5" cy="424.8" r="2.2"/>
	</g>
	<linearGradient id="SVGID_51_" gradientUnits="userSpaceOnUse" x1="1111.5762" y1="597.5774" x2="1109.1256" y2="520.6281">
		<stop  offset="0.2654" style="stop-color:#291F3A"/>
		<stop  offset="1" style="stop-color:#3B3151"/>
	</linearGradient>
	<path class="st74" d="M1095.3,475.8l0.5-6.8c0.1-1.4,1.3-2.5,2.7-2.5l36.8-0.6c1.6,0,2.9,1.3,2.8,2.9l-0.4,6.5c0,0-9.9,50-9.9,86.3
		c0,36.3,0,37.6,0,37.6l-1,35.6l-40.5-32.3c0,0-12.8-76.1-4.3-98.4C1090.4,481.8,1095.3,475.8,1095.3,475.8z"/>
	<g>
		<defs>
			<path id="SVGID_52_" d="M1095.3,475.8l0.5-6.8c0.1-1.4,1.3-2.5,2.7-2.5l36.8-0.6c1.6,0,2.9,1.3,2.8,2.9l-0.4,6.5
				c0,0-9.9,50-9.9,86.3c0,36.3,0,37.6,0,37.6l-1,35.6l-40.5-32.3c0,0-12.8-76.1-4.3-98.4C1090.4,481.8,1095.3,475.8,1095.3,475.8z"
				/>
		</defs>
		<clipPath id="SVGID_53_">
			<use xlink:href="#SVGID_52_"  style="overflow:visible;"/>
		</clipPath>
		<g class="st75">
			<g>
				<path class="st17" d="M1183.3,483.4c-8.4-0.3-12.6-1.9-16.7-3.4c-4.1-1.5-8-3-16.1-3.3c-8.1-0.3-12.1,0.9-16.3,2.1
					c-4.2,1.2-8.5,2.5-16.9,2.2c-8.4-0.3-12.6-1.9-16.7-3.4c-4.1-1.5-8-3-16.1-3.3c-8.1-0.3-12.1,0.9-16.3,2.1
					c-4.2,1.2-8.5,2.5-16.9,2.2c-8.4-0.3-12.6-1.9-16.7-3.4c-4.1-1.5-8-3-16.1-3.3l0.1-1.6c8.4,0.3,12.6,1.9,16.7,3.4
					c4.1,1.5,8,3,16.1,3.3c8.1,0.3,12.1-0.9,16.3-2.1c4.2-1.2,8.5-2.5,16.9-2.2s12.6,1.9,16.7,3.4c4.1,1.5,8,3,16.1,3.3
					s12.1-0.9,16.3-2.1c4.2-1.2,8.5-2.5,16.9-2.2c8.4,0.3,12.6,1.9,16.7,3.4c4.1,1.5,8,3,16.1,3.3c8.1,0.3,12.1-0.9,16.3-2.1
					c4.2-1.2,8.5-2.5,16.9-2.2l-0.1,1.6c-8.1-0.3-12.1,0.9-16.3,2.1C1196,482.4,1191.7,483.7,1183.3,483.4z"/>
			</g>
			<g>
				<path class="st17" d="M1182.6,505.2c-8.4-0.3-12.6-1.9-16.7-3.4c-4.1-1.5-8-3-16.1-3.3c-8.1-0.3-12.1,0.9-16.3,2.1
					c-4.2,1.2-8.5,2.5-16.9,2.2c-8.4-0.3-12.6-1.9-16.7-3.4c-4.1-1.5-8-3-16.1-3.3c-8.1-0.3-12.1,0.9-16.3,2.1
					c-4.2,1.2-8.5,2.5-16.9,2.2c-8.4-0.3-12.6-1.9-16.7-3.4c-4.1-1.5-8-3-16.1-3.3l0.1-1.6c8.4,0.3,12.6,1.9,16.7,3.4
					c4.1,1.5,8,3,16.1,3.3c8.1,0.3,12.1-0.9,16.3-2.1c4.2-1.2,8.5-2.5,16.9-2.2s12.6,1.9,16.7,3.4c4.1,1.5,8,3,16.1,3.3
					s12.1-0.9,16.3-2.1c4.2-1.2,8.5-2.5,16.9-2.2c8.4,0.3,12.6,1.9,16.7,3.4c4.1,1.5,8,3,16.1,3.3c8.1,0.3,12.1-0.9,16.3-2.1
					c4.2-1.2,8.5-2.5,16.9-2.2l-0.1,1.6c-8.1-0.3-12.1,0.9-16.3,2.1C1195.2,504.3,1190.9,505.5,1182.6,505.2z"/>
			</g>
			<g>
				<path class="st17" d="M1181.8,527.1c-8.4-0.3-12.6-1.9-16.7-3.4c-4.1-1.5-8-3-16.1-3.3c-8.1-0.3-12.1,0.9-16.3,2.1
					c-4.2,1.2-8.5,2.5-16.9,2.2c-8.4-0.3-12.6-1.9-16.7-3.4c-4.1-1.5-8-3-16.1-3.3c-8.1-0.3-12.1,0.9-16.3,2.1
					c-4.2,1.2-8.5,2.5-16.9,2.2c-8.4-0.3-12.6-1.9-16.7-3.4c-4.1-1.5-8-3-16.1-3.3l0.1-1.6c8.4,0.3,12.6,1.9,16.7,3.4
					c4.1,1.5,8,3,16.1,3.3c8.1,0.3,12.1-0.9,16.3-2.1c4.2-1.2,8.5-2.5,16.9-2.2s12.6,1.9,16.7,3.4c4.1,1.5,8,3,16.1,3.3
					c8.1,0.3,12.1-0.9,16.3-2.1c4.2-1.2,8.5-2.5,16.9-2.2c8.4,0.3,12.6,1.9,16.7,3.4c4.1,1.5,8,3,16.1,3.3
					c8.1,0.3,12.1-0.9,16.3-2.1c4.2-1.2,8.5-2.5,16.9-2.2l-0.1,1.6c-8.1-0.3-12.1,0.9-16.3,2.1
					C1194.5,526.1,1190.1,527.4,1181.8,527.1z"/>
			</g>
			<g>
				<path class="st17" d="M1181,549c-8.4-0.3-12.6-1.9-16.7-3.4c-4.1-1.5-8-3-16.1-3.3c-8.1-0.3-12.1,0.9-16.3,2.1
					c-4.2,1.2-8.5,2.5-16.9,2.2c-8.4-0.3-12.6-1.9-16.7-3.4c-4.1-1.5-8-3-16.1-3.3c-8.1-0.3-12.1,0.9-16.3,2.1
					c-4.2,1.2-8.5,2.5-16.9,2.2c-8.4-0.3-12.6-1.9-16.7-3.4c-4.1-1.5-8-3-16.1-3.3l0.1-1.6c8.4,0.3,12.6,1.9,16.7,3.4
					c4.1,1.5,8,3,16.1,3.3c8.1,0.3,12.1-0.9,16.3-2.1c4.2-1.2,8.5-2.5,16.9-2.2s12.6,1.9,16.7,3.4c4.1,1.5,8,3,16.1,3.3
					c8.1,0.3,12.1-0.9,16.3-2.1c4.2-1.2,8.5-2.5,16.9-2.2c8.4,0.3,12.6,1.9,16.7,3.4c4.1,1.5,8,3,16.1,3.3
					c8.1,0.3,12.1-0.9,16.3-2.1c4.2-1.2,8.5-2.5,16.9-2.2l-0.1,1.6c-8.1-0.3-12.1,0.9-16.3,2.1C1193.7,548,1189.4,549.3,1181,549z"
					/>
			</g>
			<g>
				<path class="st17" d="M1180.2,570.8c-8.4-0.3-12.6-1.9-16.7-3.4c-4.1-1.5-8-3-16.1-3.3c-8.1-0.3-12.1,0.9-16.3,2.1
					c-4.2,1.2-8.5,2.5-16.9,2.2c-8.4-0.3-12.6-1.9-16.7-3.4c-4.1-1.5-8-3-16.1-3.3c-8.1-0.3-12.1,0.9-16.3,2.1
					c-4.2,1.2-8.5,2.5-16.9,2.2c-8.4-0.3-12.6-1.9-16.7-3.4c-4.1-1.5-8-3-16.1-3.3l0.1-1.6c8.4,0.3,12.6,1.9,16.7,3.4
					c4.1,1.5,8,3,16.1,3.3c8.1,0.3,12.1-0.9,16.3-2.1c4.2-1.2,8.5-2.5,16.9-2.2c8.4,0.3,12.6,1.9,16.7,3.4c4.1,1.5,8,3,16.1,3.3
					c8.1,0.3,12.1-0.9,16.3-2.1c4.2-1.2,8.5-2.5,16.9-2.2c8.4,0.3,12.6,1.9,16.7,3.4c4.1,1.5,8,3,16.1,3.3
					c8.1,0.3,12.1-0.9,16.3-2.1c4.2-1.2,8.5-2.5,16.9-2.2l-0.1,1.6c-8.1-0.3-12.1,0.9-16.3,2.1
					C1192.9,569.9,1188.6,571.1,1180.2,570.8z"/>
			</g>
			<g>
				<path class="st17" d="M1179.4,592.7c-8.4-0.3-12.6-1.9-16.7-3.4c-4.1-1.5-8-3-16.1-3.3c-8.1-0.3-12.1,0.9-16.3,2.1
					c-4.2,1.2-8.5,2.5-16.9,2.2c-8.4-0.3-12.6-1.9-16.7-3.4c-4.1-1.5-8-3-16.1-3.3c-8.1-0.3-12.1,0.9-16.3,2.1
					c-4.2,1.2-8.5,2.5-16.9,2.2c-8.4-0.3-12.6-1.9-16.7-3.4c-4.1-1.5-8-3-16.1-3.3l0.1-1.6c8.4,0.3,12.6,1.9,16.7,3.4
					c4.1,1.5,8,3,16.1,3.3c8.1,0.3,12.1-0.9,16.3-2.1c4.2-1.2,8.5-2.5,16.9-2.2s12.6,1.9,16.7,3.4c4.1,1.5,8,3,16.1,3.3
					c8.1,0.3,12.1-0.9,16.3-2.1c4.2-1.2,8.5-2.5,16.9-2.2c8.4,0.3,12.6,1.9,16.7,3.4c4.1,1.5,8,3,16.1,3.3
					c8.1,0.3,12.1-0.9,16.3-2.1c4.2-1.2,8.5-2.5,16.9-2.2l-0.1,1.6c-8.1-0.3-12.1,0.9-16.3,2.1
					C1192.1,591.7,1187.8,593,1179.4,592.7z"/>
			</g>
			<g>
				<path class="st17" d="M1178.6,614.5c-8.4-0.3-12.6-1.9-16.7-3.4c-4.1-1.5-8-3-16.1-3.3c-8.1-0.3-12.1,0.9-16.3,2.1
					c-4.2,1.2-8.5,2.5-16.9,2.2c-8.4-0.3-12.6-1.9-16.7-3.4c-4.1-1.5-8-3-16.1-3.3c-8.1-0.3-12.1,0.9-16.3,2.1
					c-4.2,1.2-8.5,2.5-16.9,2.2c-8.4-0.3-12.6-1.9-16.7-3.4c-4.1-1.5-8-3-16.1-3.3l0.1-1.6c8.4,0.3,12.6,1.9,16.7,3.4
					c4.1,1.5,8,3,16.1,3.3c8.1,0.3,12.1-0.9,16.3-2.1c4.2-1.2,8.5-2.5,16.9-2.2s12.6,1.9,16.7,3.4c4.1,1.5,8,3,16.1,3.3
					c8.1,0.3,12.1-0.9,16.3-2.1c4.2-1.2,8.5-2.5,16.9-2.2c8.4,0.3,12.6,1.9,16.7,3.4c4.1,1.5,8,3,16.1,3.3
					c8.1,0.3,12.1-0.9,16.3-2.1c4.2-1.2,8.5-2.5,16.9-2.2l-0.1,1.6c-8.1-0.3-12.1,0.9-16.3,2.1
					C1191.3,613.6,1187,614.8,1178.6,614.5z"/>
			</g>
			<g>
				<path class="st17" d="M1177.8,636.4c-8.4-0.3-12.6-1.9-16.7-3.4c-4.1-1.5-8-3-16.1-3.3c-8.1-0.3-12.1,0.9-16.3,2.1
					c-4.2,1.2-8.5,2.5-16.9,2.2c-8.4-0.3-12.6-1.9-16.7-3.4c-4.1-1.5-8-3-16.1-3.3c-8.1-0.3-12.1,0.9-16.3,2.1
					c-4.2,1.2-8.5,2.5-16.9,2.2c-8.4-0.3-12.6-1.9-16.7-3.4c-4.1-1.5-8-3-16.1-3.3l0.1-1.6c8.4,0.3,12.6,1.9,16.7,3.4
					c4.1,1.5,8,3,16.1,3.3c8.1,0.3,12.1-0.9,16.3-2.1c4.2-1.2,8.5-2.5,16.9-2.2s12.6,1.9,16.7,3.4c4.1,1.5,8,3,16.1,3.3
					c8.1,0.3,12.1-0.9,16.3-2.1c4.2-1.2,8.5-2.5,16.9-2.2c8.4,0.3,12.6,1.9,16.7,3.4c4.1,1.5,8,3,16.1,3.3
					c8.1,0.3,12.1-0.9,16.3-2.1c4.2-1.2,8.5-2.5,16.9-2.2l-0.1,1.6c-8.1-0.3-12.1,0.9-16.3,2.1
					C1190.5,635.4,1186.2,636.7,1177.8,636.4z"/>
			</g>
			<g>
				<path class="st17" d="M1177.1,658.2c-8.4-0.3-12.6-1.9-16.7-3.4c-4.1-1.5-8-3-16.1-3.3c-8.1-0.3-12.1,0.9-16.3,2.1
					c-4.2,1.2-8.5,2.5-16.9,2.2c-8.4-0.3-12.6-1.9-16.7-3.4c-4.1-1.5-8-3-16.1-3.3c-8.1-0.3-12.1,0.9-16.3,2.1
					c-4.2,1.2-8.5,2.5-16.9,2.2c-8.4-0.3-12.6-1.9-16.7-3.4c-4.1-1.5-8-3-16.1-3.3l0.1-1.6c8.4,0.3,12.6,1.9,16.7,3.4
					c4.1,1.5,8,3,16.1,3.3c8.1,0.3,12.1-0.9,16.3-2.1c4.2-1.2,8.5-2.5,16.9-2.2s12.6,1.9,16.7,3.4c4.1,1.5,8,3,16.1,3.3
					c8.1,0.3,12.1-0.9,16.3-2.1c4.2-1.2,8.5-2.5,16.9-2.2c8.4,0.3,12.6,1.9,16.7,3.4c4.1,1.5,8,3,16.1,3.3
					c8.1,0.3,12.1-0.9,16.3-2.1c4.2-1.2,8.5-2.5,16.9-2.2l-0.1,1.6c-8.1-0.3-12.1,0.9-16.3,2.1
					C1189.7,657.3,1185.4,658.5,1177.1,658.2z"/>
			</g>
			<g>
				<path class="st17" d="M1176.3,680.1c-8.4-0.3-12.6-1.9-16.7-3.4c-4.1-1.5-8-3-16.1-3.3c-8.1-0.3-12.1,0.9-16.3,2.1
					c-4.2,1.2-8.5,2.5-16.9,2.2c-8.4-0.3-12.6-1.9-16.7-3.4c-4.1-1.5-8-3-16.1-3.3c-8.1-0.3-12.1,0.9-16.3,2.1
					c-4.2,1.2-8.5,2.5-16.9,2.2c-8.4-0.3-12.6-1.9-16.7-3.4c-4.1-1.5-8-3-16.1-3.3l0.1-1.6c8.4,0.3,12.6,1.9,16.7,3.4
					c4.1,1.5,8,3,16.1,3.3c8.1,0.3,12.1-0.9,16.3-2.1c4.2-1.2,8.5-2.5,16.9-2.2s12.6,1.9,16.7,3.4c4.1,1.5,8,3,16.1,3.3
					c8.1,0.3,12.1-0.9,16.3-2.1c4.2-1.2,8.5-2.5,16.9-2.2c8.4,0.3,12.6,1.9,16.7,3.4c4.1,1.5,8,3,16.1,3.3
					c8.1,0.3,12.1-0.9,16.3-2.1c4.2-1.2,8.5-2.5,16.9-2.2l-0.1,1.6c-8.1-0.3-12.1,0.9-16.3,2.1
					C1189,679.1,1184.7,680.4,1176.3,680.1z"/>
			</g>
		</g>
	</g>
	<linearGradient id="SVGID_54_" gradientUnits="userSpaceOnUse" x1="972.6066" y1="568.1167" x2="985.023" y2="462.25">
		<stop  offset="0" style="stop-color:#925BE8"/>
		<stop  offset="1" style="stop-color:#80C3FF"/>
	</linearGradient>
	<path class="st76" d="M1095.3,475.8l-136.1,31.7l-86.8-1.9l-7.2,24.2l108.6,5.2c2.7,0.1,5.4,0.1,8-0.2l97.1-9.6L1095.3,475.8z"/>
	<linearGradient id="SVGID_55_" gradientUnits="userSpaceOnUse" x1="1013.3796" y1="569.3242" x2="993.1212" y2="450.7144">
		<stop  offset="0" style="stop-color:#000000"/>
		<stop  offset="1" style="stop-color:#000000;stop-opacity:0"/>
	</linearGradient>
	<path class="st77" d="M1086.3,503l-7.4-7c-6.4,18.5-67.8,31-77.1,24.2c-7-5.1-3.5-16.8-1.3-22.3l-19.9,4.7
		c-20,9.2-47.2,24.2-57.8,30.1l51.1,2.4c2.7,0.1,5.4,0.1,8-0.2l97.1-9.6L1086.3,503z"/>
	<linearGradient id="SVGID_56_" gradientUnits="userSpaceOnUse" x1="1083.9867" y1="564.6118" x2="1082.5164" y2="473.939">
		<stop  offset="0" style="stop-color:#925BE8"/>
		<stop  offset="1" style="stop-color:#80C3FF"/>
	</linearGradient>
	<path class="st78" d="M1088.4,509.2c-5.9,19.4-1.6,29.2-0.8,37.4c2.2,23,2.8,50,3.1,60.5l-17.2-18.9c0,0,4.5-8.3,1.6-27.1
		c-2.1-14-5.2-23.7-4.3-35.2c0.3-4,1.1-8.1,2.7-12.7c5.1-15.5,8.5-27.7,9.7-34.8l12-2.8c0,0,0,0,0,0.1
		C1095.1,476.9,1092.8,495,1088.4,509.2z"/>
	<path class="st79" d="M1095.3,475.8"/>
	<g>
		<path class="st80" d="M1070.9,526.6C1070.9,526.6,1070.9,526.6,1070.9,526.6c-0.4,0-0.6-0.3-0.6-0.6c0.4-4.3,1.2-8.5,2.7-12.8
			c2.2-6.8,4.2-13,5.7-18.4c0.1-0.3,0.4-0.5,0.7-0.4c0.3,0.1,0.5,0.4,0.4,0.7c-1.6,5.5-3.5,11.7-5.7,18.5c-1.4,4.3-2.3,8.4-2.6,12.6
			C1071.4,526.4,1071.2,526.6,1070.9,526.6z"/>
	</g>
	<path class="st81" d="M1060.7,748.4c0,0,12.5-5,14.9-22.3c2.5-17.3-1.3-28.5-3.7-29.9c0,0-13.4,4.7-15.8,21.3
		S1060.7,748.4,1060.7,748.4z"/>
	<linearGradient id="SVGID_57_" gradientUnits="userSpaceOnUse" x1="1098.6089" y1="737.2435" x2="965.6221" y2="690.8452">
		<stop  offset="0" style="stop-color:#FFC0AC"/>
		<stop  offset="1" style="stop-color:#FFD6C7"/>
	</linearGradient>
	<polygon class="st82" points="1052.4,735.8 1078,740.8 1079.3,719 1057.1,708.1 	"/>
	<linearGradient id="SVGID_58_" gradientUnits="userSpaceOnUse" x1="994.4631" y1="714.5707" x2="978.7791" y2="648.5674">
		<stop  offset="0" style="stop-color:#6B637C"/>
		<stop  offset="1" style="stop-color:#8A8593"/>
	</linearGradient>
	<path class="st83" d="M946.8,653.8l-18.9,1.9c-12.8,1.3-22.6,12.1-22.6,25c0,11.3,7.6,21.2,18.5,24.2c21.5,5.9,57,15.6,80.3,22.2
		c35.3,10,56.6,21.4,56.6,21.4s-1.6-6.4,0-21.4c1.6-15,11.3-30.8,11.3-30.8s-27-0.4-60.3-10.7C978.3,675.3,955.9,662.7,946.8,653.8z
		"/>
	<linearGradient id="SVGID_59_" gradientUnits="userSpaceOnUse" x1="985.0919" y1="790.4305" x2="1002.7363" y2="660.5478">
		<stop  offset="0" style="stop-color:#000000"/>
		<stop  offset="1" style="stop-color:#000000;stop-opacity:0"/>
	</linearGradient>
	<path class="st84" d="M963.6,665.7L963.6,665.7c-4.7,21.7-20.7,33.8-35,40.5c21.7,5.9,53.9,14.7,75.5,20.9
		c29.4,8.4,49.1,17.6,54.9,20.5l0,0c0,0-26-14.1-33.5-26.3c-7.5-12.1-2.4-32.5-2.4-32.5l0,0c-3.7-0.9-7.4-2-11.3-3.2
		C991.4,679.4,975.2,672.3,963.6,665.7z"/>
	<g>
		<path class="st85" d="M1071.9,697C1071.9,697,1071.9,697,1071.9,697c-0.3,0-27.5-0.5-60.5-10.7c-23.4-7.2-39.2-14.9-48.2-20
			c-0.4-0.2-0.5-0.7-0.3-1c0.2-0.4,0.7-0.5,1-0.3c9,5.1,24.6,12.7,47.9,19.9c32.8,10.1,59.8,10.6,60.1,10.6c0.4,0,0.8,0.4,0.8,0.8
			C1072.7,696.7,1072.3,697,1071.9,697z"/>
	</g>
	<path class="st86" d="M1004,727"/>
	<linearGradient id="SVGID_60_" gradientUnits="userSpaceOnUse" x1="1007.9598" y1="778.6624" x2="990.9689" y2="697.6286">
		<stop  offset="0" style="stop-color:#FFC0AC"/>
		<stop  offset="1" style="stop-color:#FFD6C7"/>
	</linearGradient>
	<polygon class="st87" points="981.1,710.7 983.2,729.2 1008.4,729.2 1008.4,712.2 	"/>
	<linearGradient id="SVGID_61_" gradientUnits="userSpaceOnUse" x1="1161.8535" y1="716.099" x2="1141.2683" y2="475.9386">
		<stop  offset="0" style="stop-color:#925BE8"/>
		<stop  offset="1" style="stop-color:#80C3FF"/>
	</linearGradient>
	<path class="st88" d="M1190.7,668.1c-6-11.1-13.7-26.1-18-38c-7.8-21.6-6.2-61.4-5.2-76.9c1-15.4,6.1-30,6.1-30l-10.5-30.5
		l-8.3-8.8c-8.1-4.2-16.8-8.6-17.2-8.8c0,0,0,0,0,0l0,0c0,0-9.8,22.4-13.9,48c-4.2,25.6-6.8,67.4-4.2,87.6
		c2.6,20.2,11.8,30.4,26.5,41.4c8.5,6.4,25.2,16,37.7,22.9C1188.2,677.7,1193.2,672.7,1190.7,668.1z"/>
	<linearGradient id="SVGID_62_" gradientUnits="userSpaceOnUse" x1="1114.9069" y1="513.0615" x2="1157.0574" y2="667.4503">
		<stop  offset="0" style="stop-color:#000000"/>
		<stop  offset="1" style="stop-color:#000000;stop-opacity:0"/>
	</linearGradient>
	<path class="st89" d="M1183.6,675.1c-12.5-6.9-29.2-16.5-37.7-22.9c-13.1-9.9-21.6-18.2-25.2-34.5c19.3-26.7,29.2-21.8,32.3-35.6
		c4-17.9-9.8-21.8-33.7-18.2c-10.3,1.6-21,4.4-29.9,7.1c-5.2,1.6-9.8,3.2-13.3,4.4c0.1-3.1,0-6.8-0.5-11.1c3.3-3.9,7.6-8,12.5-12
		c9.9-8.2,22.5-16.4,34.7-23.7c19.9-11.9,38.9-21.3,44.4-24l6.4,18.5c0,0-5.1,14.6-6.1,30c-1,15.4-2.6,55.3,5.2,76.9
		c4.3,11.8,12,26.8,18,38C1193.2,672.7,1188.2,677.7,1183.6,675.1z"/>
	<linearGradient id="SVGID_63_" gradientUnits="userSpaceOnUse" x1="1121.891" y1="808.0667" x2="1051.3132" y2="635.5433">
		<stop  offset="0" style="stop-color:#6B637C"/>
		<stop  offset="1" style="stop-color:#8A8593"/>
	</linearGradient>
	<path class="st90" d="M1186.4,670.9c0,0,6.9,33.8-4.4,52.4s-46.8,22.1-71.6-5.1c-24.8-27.2-82.4-96.9-82.4-96.9
		s-8.5,36.7-10.9,58.3c-2.5,21.6,1,38.3,1,38.3s-37.5,2-59.8-15.2c0,0,8.3-18.4,15.7-50c4.9-21.2,7.8-58.1,9.1-79.9
		c0.7-10.7,7.4-20,17.3-24.1l0,0c8.7-3.5,18.6-2.4,26.3,3l121.9,85.4L1186.4,670.9z"/>
	<linearGradient id="SVGID_64_" gradientUnits="userSpaceOnUse" x1="1000.3546" y1="548.8707" x2="1000.3546" y2="548.8707">
		<stop  offset="0" style="stop-color:#6B637C"/>
		<stop  offset="1" style="stop-color:#8A8593"/>
	</linearGradient>
	<path class="st91" d="M1000.4,548.9"/>
	<g>
		<path class="st85" d="M1104.6,712.5c-0.2,0-0.4-0.1-0.6-0.3c-26.6-30-76.2-89.9-76.7-90.5c-0.3-0.3-0.2-0.8,0.1-1.1
			c0.3-0.3,0.8-0.2,1.1,0.1c0.5,0.6,50,60.4,76.6,90.4c0.3,0.3,0.3,0.8-0.1,1.1C1105,712.5,1104.8,712.5,1104.6,712.5z"/>
	</g>
	<path class="st80" d="M977.5,570.5c0,0-4.5-3-6.8-12.9c-2.3-9.9,3.2-17.9,3.2-17.9l0,0c0,0,6.7,3.8,9.3,10.9
		C985.8,557.7,977.5,570.5,977.5,570.5"/>
	<linearGradient id="SVGID_65_" gradientUnits="userSpaceOnUse" x1="985.5737" y1="589.0513" x2="947.9976" y2="546.9007">
		<stop  offset="0" style="stop-color:#FFC0AC"/>
		<stop  offset="1" style="stop-color:#FFD6C7"/>
	</linearGradient>
	<path class="st92" d="M912.6,542.1c0,0-2.1,0.8-2.8,2.4c-0.7,1.6-0.2,2.7,2.6,2.7c2.8-0.1,15.7,1.7,21.2,2.5s23.4,4.2,30,4.5
		c6.5,0.3,19.6,0.7,19.6,0.7l-3.9-15.1l0,0h-3.9L912.6,542.1"/>
	<linearGradient id="SVGID_66_" gradientUnits="userSpaceOnUse" x1="972.7499" y1="525.3726" x2="919.8166" y2="574.0582">
		<stop  offset="0" style="stop-color:#F7826B"/>
		<stop  offset="1" style="stop-color:#F7826B;stop-opacity:0"/>
	</linearGradient>
	<path class="st93" d="M979.4,539.7h-3.9l-62.8,2.4c0,0-1.4,0.6-2.3,1.6c7.3,0.1,36.1,0.6,46.3,1.6c10.7,1,14.3,4.6,15.2,9.2
		c5.7,0.2,11.4,0.3,11.4,0.3L979.4,539.7z"/>
	<linearGradient id="SVGID_67_" gradientUnits="userSpaceOnUse" x1="1129.3531" y1="697.5275" x2="1076.9099" y2="538.7275">
		<stop  offset="0" style="stop-color:#925BE8"/>
		<stop  offset="1" style="stop-color:#80C3FF"/>
	</linearGradient>
	<path class="st94" d="M1078.3,568.9c18-7.7,59.3-25.2,69.5-29.1c13.1-5.1,24.7-9.8,27.8-21.2c3.1-11.4-2.2-24.1-10.3-28.9
		c-2.6-1.5-6.4-3.6-10.4-5.7l-16.8,11c-1.6,1.4-6.6,4.6-13.3,8.7l0,0h0c-21,12.9-58.5,34.5-58.5,34.5s-27.6,1.1-44.6,1.5
		c-17,0.3-47.7,0-47.7,0s4.4,7.2,5.1,15.1c0.7,7.8-1.6,15.8-1.6,15.8c33.5-7.1,68.5-2.5,84,0.3
		C1067.2,571.8,1073,571.2,1078.3,568.9z"/>
	<linearGradient id="SVGID_68_" gradientUnits="userSpaceOnUse" x1="1098.4188" y1="726.3209" x2="1125.8657" y2="771.0856">
		<stop  offset="0" style="stop-color:#DBF3F7"/>
		<stop  offset="1" style="stop-color:#FFFFFF"/>
	</linearGradient>
	<path class="st95" d="M1074.8,744.4c-2.7,0.1-4.7-2.5-4-5.1c1-3.3,2-7.5,2.4-11.3c0.3-3.2,0.4-8.6,0.3-13.5
		c-0.1-5.7,5.9-9.4,11-6.9c14.9,7.5,39.7,20.1,45.3,23.5c8.1,4.9,13.8,6.9,15.2,11.6c1.2,4.3-1.3,5.4-5.2,4.6
		c-3.9-0.8-23.7-3-36.4-3.3C1094.9,743.7,1082.1,744.1,1074.8,744.4z"/>
	<g>
		<path class="st85" d="M1110.9,749.8c-0.2,0-0.4-0.1-0.6-0.3l-7.6-9.5c-0.3-0.3-0.2-0.8,0.1-1.1c0.3-0.3,0.8-0.2,1.1,0.1l7.6,9.5
			c0.3,0.3,0.2,0.8-0.1,1.1C1111.2,749.8,1111.1,749.8,1110.9,749.8z"/>
	</g>
	<g>
		<path class="st85" d="M1118.1,749.2c-0.2,0-0.4-0.1-0.6-0.3l-7.6-9.5c-0.3-0.3-0.2-0.8,0.1-1.1c0.3-0.3,0.8-0.2,1.1,0.1l7.6,9.5
			c0.3,0.3,0.2,0.8-0.1,1.1C1118.4,749.1,1118.3,749.2,1118.1,749.2z"/>
	</g>
	<g>
		<path class="st85" d="M1125.3,748.5c-0.2,0-0.4-0.1-0.6-0.3l-7.6-9.5c-0.3-0.3-0.2-0.8,0.1-1.1c0.3-0.3,0.8-0.2,1.1,0.1l7.6,9.5
			c0.3,0.3,0.2,0.8-0.1,1.1C1125.6,748.5,1125.4,748.5,1125.3,748.5z"/>
	</g>
	<linearGradient id="SVGID_69_" gradientUnits="userSpaceOnUse" x1="989.0444" y1="787.1809" x2="967.1523" y2="729.0196">
		<stop  offset="0" style="stop-color:#DBF3F7"/>
		<stop  offset="1" style="stop-color:#FFFFFF"/>
	</linearGradient>
	<path class="st96" d="M1011,726.9l2.5,25.4c0.2,2-1.4,3.8-3.5,3.8h-74.6c-0.5,0-1-0.1-1.5-0.2c-3.1-0.8-3.2-5.2-0.3-6.4
		c6.1-2.6,16.4-6.8,20.9-8.8c5.9-2.5,20.3-12.5,24.5-18c0.8-1.1,2.1-1.6,3.5-1.5l25.8,2.8C1009.7,724.3,1010.9,725.5,1011,726.9z"/>
	<g>
		<path class="st85" d="M956.6,744c-0.1,0-0.1,0-0.2,0l-10.9-2.6c-0.4-0.1-0.7-0.5-0.6-0.9c0.1-0.4,0.5-0.7,0.9-0.6l10.9,2.6
			c0.4,0.1,0.7,0.5,0.6,0.9C957.3,743.7,957,744,956.6,744z"/>
	</g>
	<g>
		<path class="st85" d="M962.1,741.3c-0.1,0-0.1,0-0.2,0l-10.9-2.6c-0.4-0.1-0.7-0.5-0.6-0.9c0.1-0.4,0.5-0.7,0.9-0.6l10.9,2.6
			c0.4,0.1,0.7,0.5,0.6,0.9C962.8,741.1,962.5,741.3,962.1,741.3z"/>
	</g>
	<g>
		<path class="st85" d="M967.6,738.7c-0.1,0-0.1,0-0.2,0l-10.9-2.6c-0.4-0.1-0.7-0.5-0.6-0.9c0.1-0.4,0.5-0.7,0.9-0.6l10.9,2.6
			c0.4,0.1,0.7,0.5,0.6,0.9C968.2,738.5,967.9,738.7,967.6,738.7z"/>
	</g>
	<g>
		<path class="st97" d="M787.8,535.1h190.9l0,0c0,3.9-3.1,7-7,7h-180c-3,0-5.5-2.4-5.5-5.5l0,0C786.2,535.8,786.9,535.1,787.8,535.1
			z"/>
		<path class="st98" d="M978.7,535.1h-89.5c-0.9,0-1.6,0.7-1.6,1.6c0,3,2.4,5.5,5.5,5.5h78.5C975.5,542.1,978.7,539,978.7,535.1z"/>
		<path class="st68" d="M892,448.7h115.6c2.9,0,4.8,2.9,3.8,5.6l-32.8,80.8H852.8l33.5-82.5C887.3,450.2,889.5,448.7,892,448.7z"/>
		<linearGradient id="SVGID_70_" gradientUnits="userSpaceOnUse" x1="936.2358" y1="548.6182" x2="931.3345" y2="472.649">
			<stop  offset="0" style="stop-color:#DBF3F7"/>
			<stop  offset="1" style="stop-color:#FFFFFF"/>
		</linearGradient>
		<polygon class="st99" points="859.6,530.5 889.8,456.3 1005.7,456.3 975.6,530.5 		"/>
		<g>
			<polygon class="st10" points="890.7,503.1 887.8,510.4 878,510.4 880.9,503.1 			"/>
			<polygon class="st10" points="894.8,493.2 891.8,500.5 882,500.5 885,493.2 			"/>
			<polygon class="st10" points="898.8,483.3 895.8,490.5 886,490.5 889,483.3 			"/>
			<polygon class="st10" points="902.8,473.4 899.9,480.6 890.1,480.6 893,473.4 			"/>
			<polygon class="st10" points="906.8,503.1 903.8,510.4 894,510.4 897,503.1 			"/>
			<polygon class="st10" points="910.8,493.2 907.9,500.5 898.1,500.5 901,493.2 			"/>
			<polygon class="st10" points="914.8,483.3 911.9,490.5 902.1,490.5 905,483.3 			"/>
			<polygon class="st10" points="918.9,473.4 915.9,480.6 906.1,480.6 909,473.4 			"/>
			<polygon class="st10" points="922.8,503.1 919.9,510.4 910.1,510.4 913,503.1 			"/>
			<polygon class="st10" points="926.9,493.2 923.9,500.5 914.1,500.5 917,493.2 			"/>
			<polygon class="st10" points="930.9,483.3 927.9,490.5 918.1,490.5 921.1,483.3 			"/>
			<polygon class="st10" points="934.9,473.4 932,480.6 922.2,480.6 925.1,473.4 			"/>
		</g>
		<rect x="901.4" y="537.5" class="st68" width="9.2" height="2.2"/>
		<rect x="914.7" y="537.5" class="st68" width="9.2" height="2.2"/>
	</g>
	<g>
		<polygon class="st20" points="1000.1,402.5 991.5,464.9 905,464.9 912.5,410.9 968.4,410.9 968.5,410 969.6,402.5 		"/>
		<linearGradient id="SVGID_71_" gradientUnits="userSpaceOnUse" x1="951.9842" y1="486.268" x2="948.5533" y2="413.7297">
			<stop  offset="0" style="stop-color:#DBF3F7"/>
			<stop  offset="1" style="stop-color:#FFFFFF"/>
		</linearGradient>
		<polygon class="st100" points="905.6,464.9 990.6,464.9 992.3,381.1 907.4,381.1 		"/>
		<polygon class="st22" points="896.3,402.5 905,464.9 991.5,464.9 984,410.9 928,410.9 927.9,410 926.9,402.5 		"/>
		<path class="st20" d="M909.2,424.3h19c1.1,0,1.8-0.9,1.6-1.9l0,0c-0.2-1.1-1.2-1.9-2.3-1.9h-19c-1.1,0-1.8,0.9-1.6,1.9l0,0
			C907.1,423.5,908.1,424.3,909.2,424.3z"/>
	</g>
	<g>
		<linearGradient id="SVGID_72_" gradientUnits="userSpaceOnUse" x1="1011.0812" y1="535.6285" x2="1011.0812" y2="422.9001">
			<stop  offset="0" style="stop-color:#0891F9"/>
			<stop  offset="1" style="stop-color:#62BFF9"/>
		</linearGradient>
		<path class="st101" d="M1039.9,442.7c-2.9,0-5.5,1.1-7.5,2.9c0.1-0.7,0.1-1.3,0.1-2c0-11.8-9.6-21.4-21.4-21.4
			c-10.2,0-18.7,7.2-20.9,16.8c-1.7-0.8-3.6-1.2-5.6-1.2c-7.5,0-13.6,6.1-13.6,13.6c0,7.5,6.1,13.6,13.6,13.6h55.1
			c6.1,0,11.1-5,11.1-11.1C1051,447.6,1046,442.7,1039.9,442.7z"/>
		<path class="st16" d="M1023.7,462.4c0-6.1-5-11.1-11.1-11.1c-2.9,0-5.5,1.1-7.5,2.9c0.1-0.7,0.1-1.3,0.1-2c0-8.6-5.1-16-12.5-19.4
			c-1.1,1.9-2,4-2.5,6.2c-1.7-0.8-3.6-1.2-5.6-1.2c-7.5,0-13.6,6.1-13.6,13.6s6.1,13.6,13.6,13.6h38.7
			C1023.6,464.1,1023.7,463.2,1023.7,462.4z"/>
		<polygon class="st17" points="1021.4,453.1 1016.2,446.7 1011.1,440.3 1005.9,446.7 1000.8,453.1 1007.1,453.1 1007.1,464.9 
			1015.1,464.9 1015.1,453.1 		"/>
	</g>
	<path class="st67" d="M1142.8,394.8c-5.6-3.7-11.7-5.4-15-5.7c0,0,2.2,6.3,2.2,8.5C1130,397.6,1131.8,389.5,1142.8,394.8z"/>
	<path class="st16" d="M1186.3,694.3c0.7-0.3,1.4-0.6,2.1-1c0-0.6,0-1.2,0-1.8c-0.8,0.5-1.7,1-2.6,1.3c-7.1,2.9-15.9,1.4-26-4.3
		c-18.4-10.4-54.6-39.4-83.7-62.6c-21.1-16.9-37.8-30.2-42.1-32c-4.7-2-8.5-3.4-12.3-1.5c-5.2,2.7-9.2,11.6-13.3,29.9
		c-6,26.8-13.6,76.4-16.2,93.7c0.5,0.1,1,0.2,1.5,0.2c2.6-17.2,10.2-66.8,16.2-93.6c3.9-17.6,7.8-26.5,12.5-28.9
		c3.1-1.6,6.7-0.3,11,1.5c4.1,1.7,21.5,15.7,41.7,31.8c29.1,23.3,65.4,52.3,83.9,62.8C1169.6,695.9,1178.7,697.4,1186.3,694.3z"/>
	<path class="st102" d="M1023,688.8"/>
	<linearGradient id="SVGID_73_" gradientUnits="userSpaceOnUse" x1="858.4745" y1="542.5044" x2="864.356" y2="501.9875">
		<stop  offset="0" style="stop-color:#FFC0AC"/>
		<stop  offset="1" style="stop-color:#FFD6C7"/>
	</linearGradient>
	<path class="st103" d="M867.2,499.2c-2.4-1.8-5.8-0.7-6.8,2c-2.3,6.1-6.6,17.5-7.6,20.5c-1.3,4.2,1.7,5.6,6.8,3.5
		s11.1-9.6,12.2-14.5C872.6,507.3,871,502,867.2,499.2z"/>
</g>
</svg>
